<svg width="1138" height="741" viewBox="0 0 1138 741" fill="none" xmlns="http://www.w3.org/2000/svg">
  <g clip-path="url(#clip0)">
    <path
      d="M223.443 472.168L217.153 468.259C216.553 467.889 215.963 467.489 215.363 467.109C228.755 464.811 240.967 458.026 249.991 447.87C259.015 437.714 264.315 424.791 265.019 411.225C265.723 397.659 261.789 384.257 253.865 373.222C245.94 362.187 234.496 354.175 221.413 350.504L221.723 375.169L208.172 348.345H207.982C200.13 347.978 192.282 349.161 184.887 351.826C177.492 354.492 170.695 358.587 164.883 363.879C159.072 369.171 154.36 375.556 151.017 382.668C147.673 389.781 145.764 397.482 145.399 405.332C145.339 406.472 145.399 407.602 145.399 408.732C140.688 403.353 136.398 397.584 133.568 391.266C127.838 378.478 127.728 363.981 128.178 346.375C129.078 311.473 130.588 276.31 132.548 241.258C146.698 239.683 159.824 233.117 169.567 222.738C179.311 212.359 185.035 198.848 185.711 184.63C185.791 182.801 185.761 180.991 185.711 179.201C185.711 178.751 185.711 178.302 185.641 177.862C185.521 176.122 185.361 174.402 185.091 172.703C185.091 172.423 184.991 172.153 184.941 171.883C184.701 170.443 184.401 169.024 184.061 167.614C183.931 167.094 183.801 166.614 183.661 166.044C183.241 164.525 182.781 163.045 182.241 161.535C182.061 161.045 181.851 160.535 181.661 160.075C181.241 158.986 180.781 157.906 180.291 156.846C180.031 156.286 179.781 155.726 179.511 155.177C179.431 155.037 179.381 154.887 179.301 154.747C172.981 142.263 162.483 132.391 149.633 126.849C136.783 121.306 122.396 120.444 108.976 124.413L109.376 156.506L95.9756 129.992C84.9561 136.303 76.2425 145.97 71.1062 157.582C65.9699 169.193 64.6797 182.142 67.4238 194.538H67.3638C67.4538 194.968 67.5838 195.368 67.6838 195.798C67.8738 196.588 68.0739 197.367 68.2939 198.147C68.5739 199.147 68.8939 200.147 69.2239 201.147C69.4739 201.876 69.7139 202.616 69.994 203.346C70.404 204.406 70.864 205.436 71.3241 206.465C71.5941 207.065 71.8341 207.685 72.1241 208.275C72.8841 209.828 73.7109 211.338 74.6043 212.804C74.9143 213.324 75.2643 213.804 75.6043 214.314C76.2444 215.314 76.8844 216.313 77.6044 217.243C78.0345 217.833 78.4945 218.393 78.9445 218.973C79.6046 219.803 80.2746 220.622 80.9446 221.412C81.4347 221.982 81.9447 222.522 82.4547 223.072C83.1948 223.842 83.9448 224.592 84.7249 225.331C85.2349 225.821 85.7249 226.331 86.295 226.791C87.175 227.571 88.0951 228.321 89.0251 229.051C89.4952 229.41 89.9552 229.8 90.4352 230.16C91.8553 231.16 93.3154 232.16 94.8255 233.16C95.1055 233.34 95.4155 233.48 95.6956 233.65C96.9656 234.389 98.2457 235.089 99.5658 235.739C100.136 236.019 100.716 236.259 101.296 236.519C102.376 237.009 103.466 237.519 104.586 237.899C105.236 238.149 105.896 238.379 106.586 238.608C107.686 238.978 108.806 239.318 109.936 239.608C110.596 239.788 111.267 239.978 111.937 240.138C113.157 240.428 114.407 240.668 115.667 240.888L115.907 240.938C115.087 255.721 114.353 270.515 113.707 285.318C110.142 277.989 105.116 271.465 98.9384 266.148C92.7604 260.831 85.5603 256.832 77.7804 254.398C70.0005 251.964 61.8049 251.145 53.697 251.992C45.5891 252.839 37.7399 255.334 30.6316 259.324L41.2122 288.318L19.4209 267.322C7.75145 277.99 0.794961 292.852 0.0796729 308.643C-0.199115 314.183 0.312723 319.734 1.59977 325.13C4.336 336.803 10.5175 347.385 19.3426 355.504C28.1676 363.623 39.2291 368.903 51.0925 370.661C62.9559 372.418 75.0739 370.572 85.8749 365.361C96.6758 360.15 105.661 351.815 111.667 341.436C111.667 342.936 111.567 344.436 111.527 345.945C111.127 361.482 110.626 380.818 118.377 398.084C123.627 409.782 132.068 419.279 140.378 427.798C145.809 433.346 151.439 438.705 157.209 443.894C162.885 451.524 170.297 457.693 178.831 461.89C188.311 469.199 198.132 476.067 208.282 482.406L214.623 486.345C220.323 489.874 226.164 493.503 231.884 497.273C230.884 497.173 229.884 497.063 228.884 497.013C216.192 496.422 203.641 499.881 193.046 506.89C182.45 513.899 174.358 524.095 169.94 536.004L207.342 566.428L166.2 556.89C166.213 567.009 168.791 576.961 173.693 585.814C178.596 594.668 185.663 602.134 194.234 607.517C202.806 612.9 212.602 616.024 222.708 616.596C232.814 617.168 242.901 615.17 252.025 610.788C251.105 611.948 250.178 613.101 249.245 614.247C247.405 616.534 245.588 618.806 243.795 621.066C219.453 651.879 212.683 681.143 224.733 703.448L239.394 695.53C227.664 673.825 245.305 646.031 256.865 631.394C258.626 629.161 260.412 626.928 262.226 624.695C277.797 605.329 295.418 583.454 294.988 556.58C294.338 516.099 254.985 491.744 223.443 472.168Z"
      fill="#9CC1B7" />
    <path
      d="M802.488 350.194L808.778 346.285C809.378 345.915 809.968 345.515 810.568 345.135C797.178 342.83 784.971 336.04 775.952 325.88C766.933 315.721 761.64 302.796 760.942 289.231C760.244 275.665 764.182 262.266 772.111 251.235C780.039 240.203 791.485 232.197 804.568 228.53L804.258 253.195L817.809 226.371H817.979C825.831 226.004 833.679 227.187 841.074 229.852C848.469 232.517 855.266 236.613 861.078 241.905C866.889 247.197 871.601 253.581 874.944 260.694C878.288 267.807 880.197 275.508 880.562 283.358C880.622 284.498 880.562 285.628 880.562 286.758C885.273 281.379 889.563 275.61 892.393 269.291C898.124 256.504 898.234 242.007 897.784 224.401C896.883 189.499 895.373 154.336 893.413 119.284C879.263 117.709 866.137 111.142 856.394 100.764C846.65 90.385 840.926 76.8738 840.25 62.6559C840.17 60.8263 840.2 59.0167 840.25 57.2271C840.25 56.7772 840.25 56.3273 840.32 55.8874C840.44 54.1478 840.6 52.4281 840.87 50.7285C840.87 50.4486 840.97 50.1786 841.02 49.9087C841.26 48.469 841.56 47.0493 841.9 45.6396C842.03 45.1197 842.16 44.6398 842.3 44.0699C842.72 42.5503 843.18 41.0706 843.72 39.5609C843.9 39.071 844.11 38.5611 844.3 38.1012C844.72 37.0115 845.18 35.9317 845.67 34.8719C845.93 34.312 846.18 33.7522 846.46 33.2023C846.53 33.0623 846.58 32.9123 846.66 32.7724C852.977 20.2959 863.468 10.4276 876.309 4.88373C889.151 -0.66012 903.529 -1.52875 916.945 2.42892L916.545 34.522L929.945 8.00772C940.969 14.3182 949.686 23.9859 954.824 35.5996C959.962 47.2133 961.253 60.1649 958.507 72.5638H958.567C958.477 72.9937 958.347 73.3936 958.247 73.8235C958.057 74.6133 957.857 75.3932 957.637 76.173C957.357 77.1728 957.037 78.1726 956.707 79.1724C956.457 79.9022 956.217 80.642 955.937 81.3719C955.527 82.4316 955.067 83.4614 954.607 84.4912C954.337 85.0911 954.097 85.7109 953.807 86.3008C953.047 87.8538 952.22 89.3635 951.327 90.8298C951.017 91.3497 950.667 91.8296 950.327 92.3395C949.687 93.3393 949.047 94.3391 948.327 95.2689C947.897 95.8588 947.437 96.4186 946.987 96.9985C946.327 97.8283 945.657 98.6482 944.986 99.438C944.496 100.008 943.986 100.548 943.476 101.098C942.746 101.867 941.986 102.617 941.206 103.357C940.696 103.847 940.206 104.357 939.636 104.817C938.756 105.597 937.836 106.346 936.906 107.076C936.436 107.436 935.976 107.826 935.496 108.186C934.076 109.186 932.616 110.186 931.106 111.135C930.826 111.315 930.516 111.455 930.236 111.625C928.965 112.365 927.685 113.065 926.365 113.715C925.795 113.995 925.215 114.235 924.635 114.495C923.555 114.985 922.465 115.495 921.345 115.874C920.695 116.124 920.035 116.354 919.345 116.584C918.245 116.954 917.125 117.294 915.995 117.584C915.335 117.764 914.665 117.954 913.995 118.114C912.774 118.404 911.524 118.644 910.264 118.864H910.024C910.844 133.654 911.578 148.447 912.224 163.244C915.789 155.915 920.815 149.391 926.993 144.074C933.171 138.757 940.371 134.758 948.151 132.324C955.931 129.889 964.126 129.071 972.234 129.918C980.342 130.765 988.191 133.26 995.3 137.25L984.719 166.244L1006.49 145.348C1018.16 156.015 1025.12 170.877 1025.83 186.669C1026.11 192.209 1025.6 197.76 1024.31 203.156C1021.58 214.829 1015.39 225.411 1006.57 233.53C997.743 241.648 986.682 246.929 974.819 248.687C962.955 250.444 950.837 248.598 940.036 243.387C929.235 238.176 920.25 229.84 914.245 219.462C914.245 220.962 914.355 222.461 914.385 223.971C914.785 239.508 915.285 258.844 907.534 276.11C902.284 287.807 893.843 297.305 885.533 305.823C880.102 311.372 874.472 316.731 868.702 321.92C863.026 329.55 855.615 335.719 847.08 339.916C837.6 347.224 827.779 354.093 817.629 360.432L811.288 364.371C805.588 367.9 799.748 371.529 794.027 375.298C795.027 375.198 796.027 375.088 797.027 375.038C809.719 374.447 822.27 377.906 832.866 384.916C843.461 391.925 851.553 402.121 855.971 414.03L818.569 444.453L859.711 434.916C859.698 445.035 857.12 454.986 852.218 463.84C847.315 472.693 840.248 480.16 831.677 485.543C823.105 490.926 813.309 494.049 803.203 494.621C793.097 495.193 783.01 493.195 773.886 488.814C774.806 489.974 775.733 491.127 776.666 492.273C778.506 494.559 780.323 496.832 782.116 499.092C806.458 529.905 813.228 559.169 801.178 581.474L786.517 573.556C798.247 551.85 780.606 524.056 769.046 509.419C767.286 507.187 765.499 504.954 763.685 502.721C748.134 483.405 730.513 461.51 730.943 434.656C731.593 394.124 770.906 369.77 802.488 350.194Z"
      fill="#9CC1B7" />
    <path
      d="M642.789 741C916.286 741 1138 726.228 1138 708.007C1138 689.786 916.286 675.014 642.789 675.014C369.291 675.014 147.578 689.786 147.578 708.007C147.578 726.228 369.291 741 642.789 741Z"
      fill="#9CC1B7" />
    <path
      d="M659.42 709.007L481.219 706.727L481.739 702.158L490.359 626.785H646.859L658.37 702.158L659.25 707.867L659.42 709.007Z"
      fill="#2F2E41" />
    <path opacity="0.1" d="M659.25 707.867H570.314L481.219 706.727L481.739 702.158H658.37L659.25 707.867Z"
      fill="black" />
    <path d="M687.982 703.298H451.518V709.007H687.982V703.298Z" fill="#3F3D56" />
    <path
      d="M913.596 174.073C913.605 172.12 913.229 170.185 912.49 168.378C911.752 166.571 910.664 164.927 909.29 163.54C907.915 162.153 906.281 161.05 904.48 160.294C902.679 159.539 900.748 159.145 898.795 159.136H238.434C236.481 159.145 234.549 159.539 232.748 160.294C230.948 161.05 229.313 162.153 227.939 163.54C226.565 164.927 225.477 166.571 224.738 168.378C223.999 170.185 223.624 172.12 223.633 174.073V574.246H913.596V174.073Z"
      fill="#3F3D56" />
    <path
      d="M223.633 570.257V617.127C223.633 621.051 225.192 624.815 227.968 627.59C230.744 630.365 234.508 631.924 238.434 631.924H898.794C902.72 631.924 906.484 630.365 909.26 627.59C912.036 624.815 913.595 621.051 913.595 617.127V570.257H223.633Z"
      fill="#3F3D56" />
    <path d="M888.455 184.26H252.186V543.993H888.455V184.26Z" fill="#2F2E41" />
    <path
      d="M572.005 614.138C574.341 614.14 576.647 613.611 578.749 612.591C580.851 611.571 582.693 610.086 584.135 608.249C584.576 607.688 584.977 607.096 585.335 606.479L576.875 605.09L586.025 605.16C586.901 603.25 587.379 601.182 587.431 599.082C587.483 596.981 587.106 594.893 586.325 592.942L574.045 599.311L585.365 590.993C584.302 589.166 582.875 587.577 581.171 586.325C579.468 585.072 577.525 584.184 575.464 583.714C573.403 583.244 571.267 583.203 569.189 583.593C567.111 583.984 565.135 584.797 563.385 585.983C561.635 587.168 560.147 588.701 559.015 590.486C557.882 592.271 557.129 594.269 556.801 596.358C556.474 598.446 556.579 600.579 557.111 602.624C557.643 604.67 558.591 606.585 559.894 608.249V608.249C561.335 610.083 563.173 611.567 565.271 612.587C567.369 613.607 569.672 614.137 572.005 614.138Z"
      fill="#FABCA9" />
    <path opacity="0.1" d="M587.457 631.923L658.552 703.298L647.641 631.923H587.457Z" fill="black" />
    <path
      d="M778.398 680.633L797.549 669.436C794.955 665.019 791.647 661.063 787.759 657.728L751.646 668.956L779.938 652.319C772.932 648.483 765.048 646.536 757.061 646.671C749.074 646.805 741.259 649.017 734.387 653.088C727.514 657.159 721.821 662.949 717.866 669.887C713.912 676.826 711.833 684.675 711.834 692.661C711.834 718.065 732.435 718.945 757.837 718.945C783.238 718.945 803.84 718.065 803.84 692.661C803.847 686.235 802.505 679.879 799.899 674.005L778.398 680.633Z"
      fill="#57B894" />
    <path opacity="0.1"
      d="M783.279 705.328C781.237 703.287 778.957 701.498 776.489 699.999C773.019 697.69 769.418 695.34 765.318 694.55C761.728 693.86 758.008 694.44 754.318 694.24C747.95 693.85 741.956 691.102 737.506 686.532C734.886 683.833 732.836 680.533 729.686 678.444C726.296 676.224 721.996 675.744 717.985 676.294C716.816 676.469 715.657 676.709 714.515 677.014C712.709 682.016 711.789 687.293 711.795 692.611C711.795 718.015 732.396 718.895 757.798 718.895C770.129 718.895 781.329 718.685 789.59 715.566L788.21 712.986C786.896 710.236 785.24 707.662 783.279 705.328V705.328Z"
      fill="black" />
    <path opacity="0.3" d="M301.598 323.04H280.447V329.458H301.598V323.04Z" fill="#FABCA9" />
    <path opacity="0.3" d="M865.983 323.23H844.832V329.649H865.983V323.23Z" fill="#FABCA9" />
    <path opacity="0.3" d="M301.788 368.16H280.637V374.579H301.788V368.16Z" fill="#FABCA9" />
    <path opacity="0.3" d="M301.979 413.281H280.828V419.699H301.979V413.281Z" fill="#FABCA9" />
    <path opacity="0.3" d="M302.169 458.391H281.018V464.809H302.169V458.391Z" fill="#FABCA9" />
    <g opacity="0.2">
      <path opacity="0.2" d="M307.598 326.129H301.598V326.379H307.598V326.129Z" fill="#9CC1B7" />
      <path opacity="0.2"
        d="M826.66 326.379H814.869V326.129H826.66V326.379ZM803.068 326.379H791.277V326.129H803.068V326.379ZM779.477 326.379H767.676V326.129H779.477V326.379ZM755.885 326.379H744.085V326.129H755.885V326.379ZM732.294 326.379H720.493V326.129H732.294V326.379ZM708.692 326.379H696.902V326.129H708.692V326.379ZM685.101 326.379H673.3V326.129H685.101V326.379ZM661.509 326.379H649.709V326.129H661.509V326.379ZM637.918 326.379H626.117V326.129H637.918V326.379ZM614.317 326.379H602.526V326.129H614.317V326.379ZM590.725 326.379H578.924V326.129H590.725V326.379ZM567.134 326.379H555.333V326.129H567.134V326.379ZM543.542 326.379H531.741V326.129H543.542V326.379ZM519.941 326.379H508.15V326.129H519.941V326.379ZM496.349 326.379H484.559V326.129H496.349V326.379ZM472.758 326.379H460.997V326.129H472.798L472.758 326.379ZM449.166 326.379H437.366V326.129H449.166V326.379ZM425.565 326.379H413.774V326.129H425.565V326.379ZM401.974 326.379H390.183V326.129H401.994L401.974 326.379ZM378.382 326.379H366.581V326.129H378.382V326.379ZM354.791 326.379H342.99V326.129H354.791V326.379ZM331.189 326.379H319.398V326.129H331.189V326.379Z"
        fill="#9CC1B7" />
      <path opacity="0.2" d="M844.459 326.129H838.459V326.379H844.459V326.129Z" fill="#9CC1B7" />
      <path opacity="0.2" d="M307.598 326.129H301.598V326.379H307.598V326.129Z" fill="#9CC1B7" />
      <path opacity="0.2"
        d="M826.66 326.379H814.869V326.129H826.66V326.379ZM803.068 326.379H791.277V326.129H803.068V326.379ZM779.477 326.379H767.676V326.129H779.477V326.379ZM755.885 326.379H744.085V326.129H755.885V326.379ZM732.294 326.379H720.493V326.129H732.294V326.379ZM708.692 326.379H696.902V326.129H708.692V326.379ZM685.101 326.379H673.3V326.129H685.101V326.379ZM661.509 326.379H649.709V326.129H661.509V326.379ZM637.918 326.379H626.117V326.129H637.918V326.379ZM614.317 326.379H602.526V326.129H614.317V326.379ZM590.725 326.379H578.924V326.129H590.725V326.379ZM567.134 326.379H555.333V326.129H567.134V326.379ZM543.542 326.379H531.741V326.129H543.542V326.379ZM519.941 326.379H508.15V326.129H519.941V326.379ZM496.349 326.379H484.559V326.129H496.349V326.379ZM472.758 326.379H460.997V326.129H472.798L472.758 326.379ZM449.166 326.379H437.366V326.129H449.166V326.379ZM425.565 326.379H413.774V326.129H425.565V326.379ZM401.974 326.379H390.183V326.129H401.994L401.974 326.379ZM378.382 326.379H366.581V326.129H378.382V326.379ZM354.791 326.379H342.99V326.129H354.791V326.379ZM331.189 326.379H319.398V326.129H331.189V326.379Z"
        fill="#9CC1B7" />
      <path opacity="0.2" d="M844.459 326.129H838.459V326.379H844.459V326.129Z" fill="#9CC1B7" />
    </g>
    <path opacity="0.3" d="M301.598 278.05H280.447V284.468H301.598V278.05Z" fill="#FABCA9" />
    <path opacity="0.3" d="M865.983 278.24H844.832V284.659H865.983V278.24Z" fill="#FABCA9" />
    <g opacity="0.2">
      <path opacity="0.2" d="M307.598 281.139H301.598V281.389H307.598V281.139Z" fill="#9CC1B7" />
      <path opacity="0.2"
        d="M826.66 281.389H814.869V281.139H826.66V281.389ZM803.068 281.389H791.277V281.139H803.068V281.389ZM779.477 281.389H767.676V281.139H779.477V281.389ZM755.885 281.389H744.085V281.139H755.885V281.389ZM732.294 281.389H720.493V281.139H732.294V281.389ZM708.692 281.389H696.902V281.139H708.692V281.389ZM685.101 281.389H673.3V281.139H685.101V281.389ZM661.509 281.389H649.709V281.139H661.509V281.389ZM637.918 281.389H626.117V281.139H637.918V281.389ZM614.317 281.389H602.526V281.139H614.317V281.389ZM590.725 281.389H578.924V281.139H590.725V281.389ZM567.134 281.389H555.333V281.139H567.134V281.389ZM543.542 281.389H531.741V281.139H543.542V281.389ZM519.941 281.389H508.15V281.139H519.941V281.389ZM496.349 281.389H484.559V281.139H496.349V281.389ZM472.758 281.389H460.997V281.139H472.798L472.758 281.389ZM449.166 281.389H437.366V281.139H449.166V281.389ZM425.565 281.389H413.774V281.139H425.565V281.389ZM401.974 281.389H390.183V281.139H401.994L401.974 281.389ZM378.382 281.389H366.581V281.139H378.382V281.389ZM354.791 281.389H342.99V281.139H354.791V281.389ZM331.189 281.389H319.398V281.139H331.189V281.389Z"
        fill="#9CC1B7" />
      <path opacity="0.2" d="M844.459 281.139H838.459V281.389H844.459V281.139Z" fill="#9CC1B7" />
    </g>
    <path opacity="0.3" d="M865.983 368.16H844.832V374.579H865.983V368.16Z" fill="#FABCA9" />
    <g opacity="0.2">
      <path opacity="0.2" d="M307.598 371.06H301.598V371.31H307.598V371.06Z" fill="#9CC1B7" />
      <path opacity="0.2"
        d="M826.66 371.3H814.869V371.05H826.66V371.3ZM803.068 371.3H791.277V371.05H803.068V371.3ZM779.477 371.3H767.676V371.05H779.477V371.3ZM755.885 371.3H744.085V371.05H755.885V371.3ZM732.294 371.3H720.493V371.05H732.294V371.3ZM708.692 371.3H696.902V371.05H708.692V371.3ZM685.101 371.3H673.3V371.05H685.101V371.3ZM661.509 371.3H649.709V371.05H661.509V371.3ZM637.918 371.3H626.117V371.05H637.918V371.3ZM614.317 371.3H602.526V371.05H614.317V371.3ZM590.725 371.3H578.924V371.05H590.725V371.3ZM567.134 371.3H555.333V371.05H567.134V371.3ZM543.542 371.3H531.741V371.05H543.542V371.3ZM519.941 371.3H508.15V371.05H519.941V371.3ZM496.349 371.3H484.559V371.05H496.349V371.3ZM472.758 371.3H460.997V371.05H472.798L472.758 371.3ZM449.166 371.3H437.366V371.05H449.166V371.3ZM425.565 371.3H413.774V371.05H425.565V371.3ZM401.974 371.3H390.183V371.05H401.994L401.974 371.3ZM378.382 371.3H366.581V371.05H378.382V371.3ZM354.791 371.3H342.99V371.05H354.791V371.3ZM331.189 371.3H319.398V371.05H331.189V371.3Z"
        fill="#9CC1B7" />
      <path opacity="0.2" d="M844.459 371.06H838.459V371.31H844.459V371.06Z" fill="#9CC1B7" />
      <path opacity="0.2" d="M307.598 371.06H301.598V371.31H307.598V371.06Z" fill="#9CC1B7" />
      <path opacity="0.2"
        d="M826.66 371.3H814.869V371.05H826.66V371.3ZM803.068 371.3H791.277V371.05H803.068V371.3ZM779.477 371.3H767.676V371.05H779.477V371.3ZM755.885 371.3H744.085V371.05H755.885V371.3ZM732.294 371.3H720.493V371.05H732.294V371.3ZM708.692 371.3H696.902V371.05H708.692V371.3ZM685.101 371.3H673.3V371.05H685.101V371.3ZM661.509 371.3H649.709V371.05H661.509V371.3ZM637.918 371.3H626.117V371.05H637.918V371.3ZM614.317 371.3H602.526V371.05H614.317V371.3ZM590.725 371.3H578.924V371.05H590.725V371.3ZM567.134 371.3H555.333V371.05H567.134V371.3ZM543.542 371.3H531.741V371.05H543.542V371.3ZM519.941 371.3H508.15V371.05H519.941V371.3ZM496.349 371.3H484.559V371.05H496.349V371.3ZM472.758 371.3H460.997V371.05H472.798L472.758 371.3ZM449.166 371.3H437.366V371.05H449.166V371.3ZM425.565 371.3H413.774V371.05H425.565V371.3ZM401.974 371.3H390.183V371.05H401.994L401.974 371.3ZM378.382 371.3H366.581V371.05H378.382V371.3ZM354.791 371.3H342.99V371.05H354.791V371.3ZM331.189 371.3H319.398V371.05H331.189V371.3Z"
        fill="#9CC1B7" />
      <path opacity="0.2" d="M844.459 371.06H838.459V371.31H844.459V371.06Z" fill="#9CC1B7" />
    </g>
    <path opacity="0.3" d="M865.983 413.091H844.832V419.51H865.983V413.091Z" fill="#FABCA9" />
    <g opacity="0.2">
      <path opacity="0.2" d="M307.598 415.98H301.598V416.23H307.598V415.98Z" fill="#9CC1B7" />
      <path opacity="0.2"
        d="M826.66 416.23H814.869V415.98H826.66V416.23ZM803.068 416.23H791.277V415.98H803.068V416.23ZM779.477 416.23H767.676V415.98H779.477V416.23ZM755.885 416.23H744.085V415.98H755.885V416.23ZM732.294 416.23H720.493V415.98H732.294V416.23ZM708.692 416.23H696.902V415.98H708.692V416.23ZM685.101 416.23H673.3V415.98H685.101V416.23ZM661.509 416.23H649.709V415.98H661.509V416.23ZM637.918 416.23H626.117V415.98H637.918V416.23ZM614.317 416.23H602.526V415.98H614.317V416.23ZM590.725 416.23H578.924V415.98H590.725V416.23ZM567.134 416.23H555.333V415.98H567.134V416.23ZM543.542 416.23H531.741V415.98H543.542V416.23ZM519.941 416.23H508.15V415.98H519.941V416.23ZM496.349 416.23H484.559V415.98H496.349V416.23ZM472.758 416.23H460.997V415.98H472.798L472.758 416.23ZM449.166 416.23H437.366V415.98H449.166V416.23ZM425.565 416.23H413.774V415.98H425.565V416.23ZM401.974 416.23H390.183V415.98H401.994L401.974 416.23ZM378.382 416.23H366.581V415.98H378.382V416.23ZM354.791 416.23H342.99V415.98H354.791V416.23ZM331.189 416.23H319.398V415.98H331.189V416.23Z"
        fill="#9CC1B7" />
      <path opacity="0.2" d="M844.459 415.98H838.459V416.23H844.459V415.98Z" fill="#9CC1B7" />
      <path opacity="0.2" d="M307.598 415.98H301.598V416.23H307.598V415.98Z" fill="#9CC1B7" />
      <path opacity="0.2"
        d="M826.66 416.23H814.869V415.98H826.66V416.23ZM803.068 416.23H791.277V415.98H803.068V416.23ZM779.477 416.23H767.676V415.98H779.477V416.23ZM755.885 416.23H744.085V415.98H755.885V416.23ZM732.294 416.23H720.493V415.98H732.294V416.23ZM708.692 416.23H696.902V415.98H708.692V416.23ZM685.101 416.23H673.3V415.98H685.101V416.23ZM661.509 416.23H649.709V415.98H661.509V416.23ZM637.918 416.23H626.117V415.98H637.918V416.23ZM614.317 416.23H602.526V415.98H614.317V416.23ZM590.725 416.23H578.924V415.98H590.725V416.23ZM567.134 416.23H555.333V415.98H567.134V416.23ZM543.542 416.23H531.741V415.98H543.542V416.23ZM519.941 416.23H508.15V415.98H519.941V416.23ZM496.349 416.23H484.559V415.98H496.349V416.23ZM472.758 416.23H460.997V415.98H472.798L472.758 416.23ZM449.166 416.23H437.366V415.98H449.166V416.23ZM425.565 416.23H413.774V415.98H425.565V416.23ZM401.974 416.23H390.183V415.98H401.994L401.974 416.23ZM378.382 416.23H366.581V415.98H378.382V416.23ZM354.791 416.23H342.99V415.98H354.791V416.23ZM331.189 416.23H319.398V415.98H331.189V416.23Z"
        fill="#9CC1B7" />
      <path opacity="0.2" d="M844.459 415.98H838.459V416.23H844.459V415.98Z" fill="#9CC1B7" />
    </g>
    <path opacity="0.3" d="M865.983 458.011H844.832V464.429H865.983V458.011Z" fill="#FABCA9" />
    <g opacity="0.2">
      <path opacity="0.2" d="M307.598 460.911H301.598V461.161H307.598V460.911Z" fill="#9CC1B7" />
      <path opacity="0.2"
        d="M826.66 461.161H814.869V460.911H826.66V461.161ZM803.068 461.161H791.277V460.911H803.068V461.161ZM779.477 461.161H767.676V460.911H779.477V461.161ZM755.885 461.161H744.085V460.911H755.885V461.161ZM732.294 461.161H720.493V460.911H732.294V461.161ZM708.692 461.161H696.902V460.911H708.692V461.161ZM685.101 461.161H673.3V460.911H685.101V461.161ZM661.509 461.161H649.709V460.911H661.509V461.161ZM637.918 461.161H626.117V460.911H637.918V461.161ZM614.317 461.161H602.526V460.911H614.317V461.161ZM590.725 461.161H578.924V460.911H590.725V461.161ZM567.134 461.161H555.333V460.911H567.134V461.161ZM543.542 461.161H531.741V460.911H543.542V461.161ZM519.941 461.161H508.15V460.911H519.941V461.161ZM496.349 461.161H484.559V460.911H496.349V461.161ZM472.758 461.161H460.997V460.911H472.798L472.758 461.161ZM449.166 461.161H437.366V460.911H449.166V461.161ZM425.565 461.161H413.774V460.911H425.565V461.161ZM401.974 461.161H390.183V460.911H401.994L401.974 461.161ZM378.382 461.161H366.581V460.911H378.382V461.161ZM354.791 461.161H342.99V460.911H354.791V461.161ZM331.189 461.161H319.398V460.911H331.189V461.161Z"
        fill="#9CC1B7" />
      <path opacity="0.2" d="M844.459 460.911H838.459V461.161H844.459V460.911Z" fill="#9CC1B7" />
      <path opacity="0.2" d="M307.598 460.911H301.598V461.161H307.598V460.911Z" fill="#9CC1B7" />
      <path opacity="0.2"
        d="M826.66 461.161H814.869V460.911H826.66V461.161ZM803.068 461.161H791.277V460.911H803.068V461.161ZM779.477 461.161H767.676V460.911H779.477V461.161ZM755.885 461.161H744.085V460.911H755.885V461.161ZM732.294 461.161H720.493V460.911H732.294V461.161ZM708.692 461.161H696.902V460.911H708.692V461.161ZM685.101 461.161H673.3V460.911H685.101V461.161ZM661.509 461.161H649.709V460.911H661.509V461.161ZM637.918 461.161H626.117V460.911H637.918V461.161ZM614.317 461.161H602.526V460.911H614.317V461.161ZM590.725 461.161H578.924V460.911H590.725V461.161ZM567.134 461.161H555.333V460.911H567.134V461.161ZM543.542 461.161H531.741V460.911H543.542V461.161ZM519.941 461.161H508.15V460.911H519.941V461.161ZM496.349 461.161H484.559V460.911H496.349V461.161ZM472.758 461.161H460.997V460.911H472.798L472.758 461.161ZM449.166 461.161H437.366V460.911H449.166V461.161ZM425.565 461.161H413.774V460.911H425.565V461.161ZM401.974 461.161H390.183V460.911H401.994L401.974 461.161ZM378.382 461.161H366.581V460.911H378.382V461.161ZM354.791 461.161H342.99V460.911H354.791V461.161ZM331.189 461.161H319.398V460.911H331.189V461.161Z"
        fill="#9CC1B7" />
      <path opacity="0.2" d="M844.459 460.911H838.459V461.161H844.459V460.911Z" fill="#9CC1B7" />
    </g>
    <path d="M370.553 281.449V461.6" stroke="#9CC1B7" stroke-width="0.1" stroke-miterlimit="10" />
    <path d="M443.557 281.449V461.6" stroke="#9CC1B7" stroke-width="0.1" stroke-miterlimit="10" />
    <path d="M516.562 281.449V461.6" stroke="#9CC1B7" stroke-width="0.1" stroke-miterlimit="10" />
    <path d="M589.566 281.449V461.6" stroke="#9CC1B7" stroke-width="0.1" stroke-miterlimit="10" />
    <path d="M662.57 281.449V461.6" stroke="#9CC1B7" stroke-width="0.1" stroke-miterlimit="10" />
    <path d="M735.574 281.449V461.6" stroke="#9CC1B7" stroke-width="0.1" stroke-miterlimit="10" />
    <path d="M808.58 281.449V461.6" stroke="#9CC1B7" stroke-width="0.1" stroke-miterlimit="10" />
    <path opacity="0.3"
      d="M824.371 269.292L816.021 277.99C815.852 278.172 815.71 278.377 815.601 278.6L810.42 289.268C810.214 289.696 809.883 290.052 809.471 290.29C809.059 290.527 808.584 290.634 808.11 290.597L806.45 290.467C805.968 290.433 805.508 290.252 805.133 289.948C804.757 289.644 804.484 289.232 804.35 288.768L802.75 283.229C802.61 282.744 802.32 282.317 801.92 282.009C801.521 281.701 801.034 281.528 800.53 281.516C800.026 281.504 799.531 281.653 799.117 281.941C798.704 282.229 798.393 282.642 798.23 283.119L795.539 290.997C795.38 291.467 795.077 291.876 794.674 292.164C794.27 292.453 793.786 292.608 793.289 292.607H783.019C782.455 292.605 781.91 292.402 781.482 292.036C781.053 291.67 780.768 291.164 780.678 290.607L777.778 272.461C777.701 271.965 777.469 271.506 777.114 271.15C776.759 270.795 776.3 270.562 775.804 270.484C775.307 270.406 774.799 270.488 774.352 270.717C773.906 270.947 773.543 271.312 773.318 271.761L758.447 301.105C758.294 301.409 758.077 301.676 757.811 301.888C757.545 302.101 757.236 302.253 756.906 302.336C756.576 302.419 756.232 302.429 755.897 302.367C755.563 302.304 755.245 302.171 754.967 301.975L746.126 295.736C745.644 295.398 745.054 295.249 744.469 295.319C743.883 295.389 743.345 295.673 742.956 296.116L739.606 299.985C739.507 300.1 739.42 300.223 739.346 300.355L730.405 315.822C730.179 316.218 729.841 316.54 729.435 316.748C729.028 316.955 728.569 317.04 728.115 316.992L722.665 316.452C722.284 316.415 721.9 316.469 721.545 316.612L716.665 318.561C716.099 318.774 715.474 318.764 714.916 318.531C714.359 318.299 713.911 317.863 713.664 317.311L712.594 314.862C712.401 314.423 712.081 314.053 711.674 313.8C711.267 313.547 710.793 313.422 710.314 313.442L704.734 313.702C704.388 313.717 704.051 313.808 703.744 313.969C703.438 314.129 703.172 314.356 702.964 314.632L701.384 316.692C701.124 317.031 700.777 317.294 700.379 317.453C699.982 317.611 699.549 317.659 699.126 317.591C698.704 317.524 698.308 317.343 697.98 317.068C697.652 316.794 697.404 316.436 697.263 316.032L695.263 310.383C695.14 310.032 694.935 309.714 694.666 309.456C694.397 309.199 694.071 309.008 693.715 308.9C693.358 308.792 692.981 308.769 692.614 308.834C692.247 308.899 691.901 309.049 691.603 309.273L682.102 316.392L671.602 324.86C671.243 325.148 670.808 325.326 670.35 325.372C669.892 325.418 669.431 325.33 669.022 325.12L660.871 320.891C660.434 320.667 659.938 320.583 659.451 320.651L642.94 322.96C642.461 323.025 642.014 323.233 641.656 323.559C641.299 323.884 641.049 324.309 640.94 324.78L638.01 337.507C637.918 337.904 637.726 338.271 637.452 338.572C637.177 338.873 636.829 339.099 636.442 339.226C636.055 339.354 635.642 339.38 635.242 339.301C634.842 339.222 634.469 339.042 634.16 338.777V338.777C633.885 338.543 633.561 338.374 633.212 338.284C632.863 338.193 632.498 338.183 632.144 338.255C631.791 338.326 631.458 338.477 631.172 338.695C630.885 338.914 630.652 339.195 630.489 339.517L628.239 344.026C628.07 344.359 627.826 344.648 627.526 344.87C627.225 345.092 626.877 345.241 626.509 345.305L621.399 346.155C621.069 346.213 620.756 346.339 620.479 346.525L612.428 351.884C612.041 352.144 611.585 352.284 611.118 352.284H607.348C606.884 352.285 606.431 352.15 606.043 351.896C605.656 351.642 605.352 351.28 605.168 350.854L604.168 348.465C604.04 348.175 603.856 347.914 603.626 347.697C603.396 347.479 603.125 347.31 602.829 347.199C602.532 347.088 602.217 347.038 601.9 347.051C601.584 347.064 601.274 347.14 600.987 347.275L592.247 351.364C591.895 351.53 591.507 351.606 591.118 351.587C590.729 351.568 590.351 351.453 590.017 351.254L586.017 348.845C585.648 348.624 585.226 348.506 584.796 348.505H575.966C575.499 348.506 575.044 348.645 574.656 348.905L565.845 354.753C565.506 354.979 565.114 355.113 564.708 355.143C564.301 355.172 563.894 355.097 563.525 354.923L559.525 353.034C559.059 352.816 558.534 352.756 558.031 352.862C557.528 352.969 557.073 353.236 556.735 353.624L554.835 355.793C554.586 356.081 554.272 356.304 553.918 356.444C553.565 356.584 553.183 356.636 552.805 356.597C552.427 356.558 552.064 356.428 551.747 356.218C551.43 356.009 551.169 355.726 550.984 355.393L550.414 354.393C550.26 354.117 550.052 353.875 549.802 353.68C549.552 353.486 549.266 353.344 548.96 353.262C548.654 353.18 548.335 353.16 548.022 353.203C547.708 353.246 547.406 353.352 547.134 353.514L540.204 357.623C539.845 357.829 539.438 357.937 539.024 357.937C538.61 357.937 538.203 357.829 537.844 357.623L534.983 356.033C534.661 355.851 534.299 355.748 533.929 355.733C533.559 355.717 533.19 355.789 532.853 355.943L530.133 357.183C529.827 357.32 529.496 357.391 529.161 357.392C528.825 357.393 528.494 357.323 528.187 357.187C527.881 357.051 527.606 356.853 527.381 356.604C527.157 356.355 526.987 356.062 526.883 355.743L525.123 350.504C524.973 350.023 524.672 349.604 524.265 349.307C523.858 349.01 523.367 348.851 522.863 348.855H520.303C519.9 348.856 519.503 348.753 519.152 348.555L509.322 343.166C508.922 342.95 508.468 342.853 508.014 342.886C507.56 342.92 507.126 343.083 506.762 343.356L499.551 348.755C499.142 349.062 498.643 349.227 498.131 349.225H489.061C488.594 349.225 488.138 349.364 487.751 349.625L486.05 350.754C485.771 350.942 485.454 351.067 485.122 351.123C484.79 351.179 484.45 351.163 484.125 351.077C483.799 350.991 483.496 350.836 483.235 350.624C482.973 350.411 482.761 350.146 482.61 349.844L482.2 349.035C482.006 348.638 481.704 348.305 481.329 348.071C480.954 347.838 480.522 347.715 480.08 347.715H475.53C475.169 347.716 474.812 347.799 474.488 347.958C474.164 348.118 473.881 348.349 473.66 348.635L470.839 352.244C470.606 352.543 470.303 352.782 469.958 352.94C469.613 353.098 469.234 353.171 468.855 353.152C468.476 353.134 468.106 353.024 467.778 352.833C467.45 352.642 467.173 352.375 466.969 352.054L466.169 350.804C465.839 350.281 465.317 349.908 464.715 349.766C464.112 349.624 463.478 349.724 462.949 350.044L460.609 351.444C460.21 351.682 459.751 351.799 459.287 351.779C458.824 351.76 458.376 351.605 457.999 351.334L448.568 344.506C448.399 344.386 448.218 344.286 448.028 344.206L440.658 341.376C440.084 341.168 439.452 341.188 438.893 341.434C438.334 341.68 437.891 342.132 437.657 342.696L432.527 355.193C432.453 355.369 432.402 355.554 432.377 355.743L430.717 367.001C430.644 367.477 430.428 367.92 430.097 368.27L426.587 372.04C426.223 372.424 425.742 372.677 425.219 372.758C424.695 372.84 424.16 372.745 423.697 372.49L417.606 369.11C417.303 368.941 416.967 368.84 416.62 368.815C416.274 368.789 415.926 368.841 415.602 368.965C415.277 369.089 414.984 369.282 414.743 369.532C414.502 369.782 414.319 370.082 414.206 370.41L410.346 381.698C410.258 381.945 410.214 382.205 410.216 382.467V389.586C410.215 390.047 410.079 390.499 409.825 390.884C409.571 391.269 409.21 391.572 408.786 391.755L402.595 394.495C402.251 394.643 401.877 394.708 401.503 394.683C401.13 394.659 400.767 394.546 400.445 394.355L395.785 391.615C395.32 391.344 394.777 391.238 394.245 391.316L386.074 392.485C385.607 392.552 385.13 392.477 384.706 392.27C384.282 392.064 383.929 391.735 383.694 391.325L382.314 388.966C382.016 388.457 381.538 388.079 380.974 387.906L377.264 386.746C376.831 386.609 376.368 386.599 375.93 386.718C375.492 386.836 375.097 387.079 374.794 387.416L369.643 393.135C369.237 393.584 368.676 393.862 368.073 393.915L360.473 394.555C360.12 394.575 359.778 394.677 359.473 394.855L346.222 402.473C345.808 402.708 345.334 402.813 344.86 402.776C344.385 402.738 343.933 402.56 343.562 402.263L339.801 399.264C339.38 398.93 338.859 398.747 338.321 398.744H324.08C323.725 398.745 323.374 398.666 323.053 398.512C322.733 398.358 322.451 398.133 322.23 397.854L318.64 393.375C318.425 393.107 318.154 392.89 317.846 392.737C317.539 392.584 317.202 392.5 316.858 392.491C316.515 392.481 316.173 392.546 315.858 392.682C315.542 392.817 315.26 393.02 315.03 393.275L310.71 398.074C310.319 398.507 310.101 399.07 310.1 399.654V459.281C310.1 459.909 310.349 460.512 310.794 460.956C311.238 461.401 311.841 461.65 312.47 461.65H826.231C826.543 461.65 826.852 461.589 827.141 461.469C827.429 461.349 827.691 461.174 827.911 460.953C828.131 460.732 828.305 460.469 828.424 460.181C828.542 459.892 828.603 459.583 828.601 459.271L828.461 270.981C828.468 270.505 828.332 270.037 828.07 269.638C827.807 269.24 827.431 268.93 826.99 268.747C826.55 268.565 826.064 268.52 825.597 268.617C825.13 268.714 824.703 268.949 824.371 269.292V269.292Z"
      fill="#FABCA9" />
    <path opacity="0.3"
      d="M823.911 346.506L816.17 351.665C815.899 351.848 815.659 352.074 815.46 352.334L810.65 358.683C810.358 359.059 809.981 359.361 809.55 359.562C809.119 359.764 808.646 359.86 808.17 359.843L806.6 359.763C806.061 359.736 805.54 359.561 805.093 359.258C804.647 358.955 804.293 358.534 804.07 358.043L803.069 355.914C802.846 355.414 802.486 354.986 802.032 354.681C801.577 354.375 801.045 354.204 800.498 354.186C799.95 354.168 799.408 354.305 798.935 354.58C798.461 354.856 798.074 355.259 797.819 355.744L795.819 359.573C795.569 360.043 795.196 360.435 794.74 360.708C794.283 360.981 793.761 361.125 793.229 361.123H783.308C782.654 361.125 782.018 360.908 781.503 360.505C780.988 360.103 780.623 359.538 780.468 358.903L778.088 349.375C777.955 348.844 777.677 348.361 777.284 347.98C776.89 347.599 776.398 347.336 775.863 347.221C775.328 347.105 774.771 347.142 774.256 347.326C773.741 347.511 773.287 347.836 772.948 348.265L758.647 366.341C758.243 366.855 757.679 367.219 757.044 367.373C756.409 367.527 755.741 367.463 755.147 367.191L745.956 363.042C745.475 362.817 744.941 362.727 744.413 362.782C743.884 362.836 743.381 363.033 742.956 363.352L739.666 365.782C739.508 365.899 739.364 366.033 739.236 366.181L730.555 375.789C730.263 376.124 729.899 376.388 729.49 376.561C729.081 376.734 728.638 376.812 728.195 376.789L722.525 376.429C722.216 376.411 721.906 376.438 721.604 376.509L716.494 377.819C715.911 377.971 715.296 377.939 714.732 377.728C714.168 377.517 713.683 377.137 713.344 376.639L712.764 375.779C712.487 375.376 712.112 375.048 711.676 374.826C711.239 374.604 710.753 374.496 710.264 374.51L704.563 374.68C703.906 374.691 703.272 374.931 702.773 375.359L701.373 376.529C701.042 376.807 700.653 377.009 700.234 377.119C699.815 377.229 699.377 377.245 698.952 377.165C698.526 377.086 698.124 376.913 697.773 376.66C697.422 376.406 697.132 376.078 696.923 375.699L695.443 373.02C695.082 372.365 694.484 371.873 693.772 371.644C693.06 371.416 692.287 371.468 691.613 371.79L682.022 376.399L671.411 381.878C671.065 382.056 670.687 382.163 670.299 382.192C669.91 382.221 669.52 382.172 669.151 382.048L660.701 379.249C660.321 379.124 659.919 379.076 659.521 379.109L643.16 380.498C642.605 380.556 642.077 380.767 641.635 381.108C641.193 381.448 640.856 381.906 640.659 382.428L638.289 389.047C638.146 389.444 637.919 389.806 637.622 390.108C637.326 390.409 636.968 390.643 636.573 390.793C636.177 390.943 635.754 391.006 635.333 390.977C634.911 390.948 634.5 390.829 634.129 390.626L634.029 390.576C633.422 390.239 632.714 390.131 632.033 390.27C631.353 390.41 630.745 390.788 630.319 391.336L628.459 393.716C627.965 394.335 627.246 394.734 626.459 394.825L621.338 395.375C621.05 395.404 620.767 395.475 620.498 395.585L612.388 399.054C612.023 399.204 611.632 399.283 611.238 399.284H607.337C606.86 399.284 606.39 399.167 605.969 398.944C605.547 398.721 605.186 398.399 604.917 398.005L604.357 397.185C604.006 396.672 603.501 396.285 602.915 396.078C602.329 395.871 601.692 395.856 601.097 396.035L592.006 398.784C591.383 398.972 590.714 398.948 590.106 398.714L585.886 397.095C585.567 396.969 585.229 396.901 584.886 396.895H575.825C575.433 396.894 575.044 396.976 574.685 397.135L565.685 400.954C565.052 401.227 564.343 401.266 563.685 401.064L559.234 399.734C558.801 399.605 558.344 399.577 557.898 399.654C557.452 399.73 557.03 399.908 556.664 400.174L554.714 401.604C554.124 402.036 553.393 402.231 552.666 402.151C551.938 402.072 551.267 401.723 550.784 401.174L550.494 400.844C550.101 400.395 549.58 400.077 549.001 399.932C548.421 399.788 547.812 399.823 547.254 400.034L540.003 402.804C539.357 403.039 538.649 403.039 538.003 402.804L534.823 401.664C534.242 401.463 533.614 401.446 533.023 401.614L530.023 402.484C529.366 402.673 528.663 402.627 528.037 402.353C527.41 402.079 526.899 401.595 526.592 400.984L525.472 398.734C525.228 398.249 524.854 397.84 524.391 397.554C523.929 397.268 523.396 397.116 522.852 397.115H520.252C519.912 397.121 519.573 397.066 519.252 396.955L509.161 393.416C508.799 393.286 508.414 393.23 508.029 393.25C507.645 393.271 507.268 393.368 506.921 393.536L499.551 397.075C499.154 397.263 498.72 397.362 498.281 397.365H488.97C488.576 397.367 488.185 397.445 487.82 397.595L485.92 398.415C485.325 398.667 484.665 398.716 484.039 398.555C483.414 398.394 482.859 398.032 482.46 397.525V397.525C482.186 397.173 481.836 396.888 481.436 396.692C481.035 396.496 480.595 396.394 480.15 396.395H475.449C474.772 396.394 474.115 396.627 473.589 397.055L470.859 399.294C470.298 399.759 469.583 399.996 468.855 399.959C468.127 399.922 467.44 399.614 466.929 399.094L466.309 398.474C465.908 398.071 465.399 397.793 464.843 397.674C464.287 397.556 463.709 397.601 463.179 397.805L460.458 398.854C459.714 399.132 458.891 399.103 458.168 398.774L448.598 394.335C448.429 394.255 448.251 394.194 448.068 394.155L440.557 392.306C439.965 392.158 439.341 392.2 438.774 392.426C438.207 392.652 437.725 393.051 437.397 393.566L432.677 400.924C432.496 401.207 432.364 401.518 432.287 401.844L430.857 408.092C430.685 408.806 430.258 409.432 429.656 409.852L426.536 411.992C426.157 412.253 425.72 412.421 425.262 412.48C424.805 412.539 424.34 412.488 423.906 412.331L417.486 410.052C416.814 409.815 416.08 409.83 415.419 410.095C414.759 410.36 414.217 410.857 413.896 411.492L410.515 417.81C410.293 418.236 410.176 418.71 410.175 419.19V422.039C410.173 422.679 409.961 423.301 409.573 423.81C409.185 424.318 408.642 424.687 408.025 424.859L402.405 426.418C401.809 426.587 401.174 426.559 400.595 426.338L395.694 424.489C395.281 424.33 394.836 424.268 394.394 424.309L385.944 425.079C385.493 425.122 385.039 425.06 384.617 424.897C384.195 424.734 383.817 424.474 383.514 424.139L382.514 423.029C382.097 422.562 381.538 422.246 380.923 422.129L377.073 421.35C376.68 421.275 376.275 421.28 375.884 421.364C375.492 421.448 375.121 421.61 374.793 421.839L369.723 425.449C369.269 425.767 368.736 425.954 368.183 425.989L360.412 426.398C360.118 426.417 359.829 426.477 359.552 426.578L346.061 431.577C345.684 431.721 345.28 431.782 344.876 431.758C344.473 431.734 344.079 431.625 343.721 431.437L339.821 429.438C339.409 429.228 338.953 429.118 338.491 429.118H323.99C323.32 429.118 322.671 428.888 322.15 428.468L318.64 425.659C318.142 425.26 317.528 425.035 316.891 425.017C316.254 424.999 315.629 425.189 315.109 425.559L311.349 428.238C310.969 428.51 310.659 428.868 310.445 429.284C310.231 429.7 310.119 430.16 310.119 430.628V458.731C310.119 459.508 310.428 460.253 310.977 460.803C311.527 461.352 312.272 461.661 313.049 461.661H825.671C826.448 461.661 827.193 461.352 827.743 460.803C828.292 460.253 828.601 459.508 828.601 458.731L828.461 348.985C828.468 348.452 828.33 347.927 828.06 347.467C827.791 347.007 827.402 346.629 826.933 346.374C826.465 346.119 825.936 345.997 825.404 346.02C824.871 346.043 824.355 346.211 823.911 346.506V346.506Z"
      fill="#FABCA9" />
    <path
      d="M825.981 352.764C829.847 352.764 832.981 349.631 832.981 345.766C832.981 341.9 829.847 338.767 825.981 338.767C822.115 338.767 818.98 341.9 818.98 345.766C818.98 349.631 822.115 352.764 825.981 352.764Z"
      fill="#FABCA9" />
    <path opacity="0.3"
      d="M825.531 415L816.021 418.169C815.838 418.232 815.664 418.316 815.501 418.419L810.28 421.869C809.901 422.116 809.454 422.242 809 422.228L805.75 422.148C805.448 422.142 805.15 422.074 804.875 421.949C804.6 421.823 804.353 421.643 804.15 421.419L802.15 419.219C801.951 418.999 801.711 418.822 801.442 418.696C801.174 418.57 800.883 418.499 800.587 418.487C800.291 418.475 799.995 418.522 799.718 418.625C799.44 418.729 799.186 418.886 798.97 419.089L795.6 422.248C795.19 422.64 794.646 422.858 794.079 422.858H782.399C781.982 422.861 781.574 422.746 781.22 422.527C780.866 422.307 780.581 421.993 780.399 421.619L777.728 416.29C777.589 416.012 777.393 415.766 777.153 415.568C776.913 415.37 776.635 415.225 776.335 415.141C776.036 415.057 775.722 415.037 775.414 415.082C775.107 415.126 774.812 415.235 774.548 415.4L758.017 425.868C757.517 426.181 756.914 426.285 756.337 426.158L745.016 423.608C744.598 423.509 744.159 423.537 743.756 423.688L739.626 425.218C739.517 425.252 739.413 425.299 739.316 425.358L730.185 430.417C729.833 430.609 729.437 430.705 729.035 430.697L722.275 430.477C722.159 430.466 722.041 430.466 721.925 430.477L715.425 431.307C714.859 431.376 714.287 431.229 713.824 430.897L712.504 429.897C712.114 429.609 711.639 429.457 711.154 429.467L704.024 429.567C703.739 429.567 703.456 429.625 703.194 429.737L699.994 431.087C699.602 431.249 699.172 431.296 698.754 431.223C698.336 431.151 697.948 430.961 697.633 430.677L695.013 428.357C694.746 428.117 694.425 427.945 694.076 427.856C693.728 427.767 693.363 427.764 693.013 427.847L682.073 430.487L670.822 433.396C670.519 433.461 670.205 433.461 669.902 433.396L660.401 431.816C660.248 431.806 660.094 431.806 659.941 431.816L642.37 432.606C642.033 432.621 641.704 432.713 641.408 432.874C641.111 433.035 640.856 433.261 640.66 433.536L638.01 437.185C637.745 437.556 637.373 437.836 636.944 437.988C636.514 438.14 636.049 438.157 635.61 438.035L632.78 437.255C632.478 437.176 632.163 437.16 631.855 437.208C631.547 437.256 631.252 437.368 630.989 437.535L628.159 439.345C627.833 439.547 627.462 439.664 627.079 439.685L621.079 440.015C620.966 440.005 620.852 440.005 620.739 440.015L612.078 441.864C611.923 441.896 611.766 441.912 611.608 441.914H606.528C606.057 441.914 605.597 441.764 605.218 441.484L603.898 440.485C603.665 440.311 603.4 440.185 603.119 440.115C602.837 440.045 602.545 440.031 602.258 440.075L591.447 441.694C591.199 441.734 590.945 441.734 590.697 441.694L585.617 440.695C585.477 440.68 585.336 440.68 585.197 440.695H575.446C575.293 440.68 575.139 440.68 574.986 440.695L565.095 442.794C564.831 442.844 564.56 442.844 564.295 442.794L558.405 441.904C558.034 441.854 557.656 441.895 557.305 442.024L553.525 443.404C553.221 443.517 552.895 443.562 552.572 443.534C552.248 443.507 551.935 443.408 551.655 443.244L549.864 442.244C549.41 441.976 548.872 441.883 548.354 441.984L539.354 443.694C539.086 443.744 538.811 443.744 538.544 443.694L534.213 442.924C533.978 442.889 533.739 442.889 533.503 442.924L528.723 443.614C528.381 443.666 528.032 443.637 527.704 443.53C527.376 443.422 527.077 443.238 526.833 442.994L525.253 441.484C524.83 441.071 524.264 440.838 523.673 440.834H519.883C519.756 440.845 519.629 440.845 519.503 440.834L508.442 438.895C508.142 438.83 507.832 438.83 507.532 438.895L499.171 440.894C499.001 440.935 498.826 440.955 498.651 440.954H488.581C488.428 440.939 488.274 440.939 488.121 440.954L484.71 441.684C484.136 441.844 483.522 441.772 483 441.484L482.06 440.874C481.702 440.646 481.285 440.525 480.86 440.525H474.77C474.481 440.526 474.196 440.584 473.93 440.695L469.669 442.434C469.376 442.557 469.059 442.614 468.742 442.602C468.424 442.59 468.113 442.509 467.829 442.364L465.569 441.224C465.13 441.005 464.632 440.934 464.149 441.024L459.689 441.884C459.386 441.949 459.072 441.949 458.769 441.884L448.428 439.485H448.198L439.408 438.395C438.822 438.329 438.233 438.494 437.767 438.855L432.767 442.734C432.487 442.951 432.264 443.232 432.117 443.554L430.997 446.043C430.871 446.317 430.69 446.563 430.467 446.765C430.244 446.968 429.982 447.124 429.697 447.223L425.857 448.533C425.502 448.662 425.118 448.693 424.747 448.623L416.206 447.103C415.865 447.044 415.516 447.065 415.184 447.164C414.853 447.263 414.549 447.437 414.296 447.673L410.906 450.842C410.683 451.051 410.506 451.304 410.386 451.584C410.265 451.865 410.204 452.167 410.206 452.472C410.206 453.009 410.011 453.527 409.658 453.932C409.305 454.336 408.818 454.599 408.286 454.671L401.875 455.561C401.637 455.601 401.394 455.601 401.155 455.561L395.355 454.462C395.182 454.441 395.008 454.441 394.835 454.462L385.144 454.901C384.737 454.917 384.333 454.824 383.974 454.632L382.274 453.702C382.013 453.552 381.723 453.46 381.424 453.432L376.334 452.922C375.996 452.887 375.654 452.928 375.334 453.042L369.333 455.171C369.111 455.25 368.879 455.294 368.643 455.301L360.113 455.531C359.996 455.521 359.879 455.521 359.763 455.531L345.312 458.201C344.998 458.266 344.675 458.266 344.362 458.201L339.441 456.941C339.258 456.897 339.07 456.874 338.881 456.871H323.37C323.086 456.874 322.804 456.82 322.54 456.711L317.68 454.771C317.171 454.577 316.609 454.577 316.1 454.771L311.58 456.381C311.147 456.533 310.771 456.815 310.506 457.19C310.241 457.564 310.099 458.012 310.1 458.471V459.47C310.098 459.763 310.155 460.052 310.266 460.323C310.377 460.593 310.54 460.839 310.746 461.046C310.953 461.254 311.198 461.418 311.468 461.53C311.738 461.642 312.027 461.7 312.32 461.7H826.351C826.644 461.7 826.933 461.642 827.203 461.53C827.473 461.418 827.719 461.254 827.925 461.046C828.131 460.839 828.294 460.593 828.405 460.323C828.516 460.052 828.573 459.763 828.572 459.47L828.441 417.21C828.455 416.851 828.383 416.495 828.23 416.171C828.076 415.847 827.847 415.564 827.562 415.347C827.276 415.13 826.943 414.986 826.589 414.925C826.236 414.865 825.873 414.89 825.531 415V415Z"
      fill="#FABCA9" />
    <path
      d="M440.957 399.754C444.824 399.754 447.958 396.62 447.958 392.755C447.958 388.89 444.824 385.757 440.957 385.757C437.091 385.757 433.957 388.89 433.957 392.755C433.957 396.62 437.091 399.754 440.957 399.754Z"
      fill="#FABCA9" />
    <path
      d="M776.977 355.763C780.843 355.763 783.977 352.63 783.977 348.765C783.977 344.9 780.843 341.766 776.977 341.766C773.111 341.766 769.977 344.9 769.977 348.765C769.977 352.63 773.111 355.763 776.977 355.763Z"
      fill="#FABCA9" />
    <path
      d="M602.967 402.753C606.833 402.753 609.968 399.62 609.968 395.755C609.968 391.89 606.833 388.756 602.967 388.756C599.101 388.756 595.967 391.89 595.967 395.755C595.967 399.62 599.101 402.753 602.967 402.753Z"
      fill="#FABCA9" />
    <path
      d="M693.973 377.759C697.839 377.759 700.973 374.625 700.973 370.76C700.973 366.895 697.839 363.762 693.973 363.762C690.107 363.762 686.973 366.895 686.973 370.76C686.973 374.625 690.107 377.759 693.973 377.759Z"
      fill="#FABCA9" />
    <path
      d="M829.461 348.925C829.459 348.396 829.314 347.878 829.041 347.425C828.768 346.972 828.378 346.602 827.911 346.352C827.445 346.103 826.92 345.985 826.391 346.01C825.863 346.036 825.351 346.203 824.911 346.496L817.17 351.654C816.899 351.837 816.659 352.064 816.46 352.324L811.65 358.673C811.358 359.049 810.981 359.351 810.55 359.552C810.119 359.754 809.646 359.85 809.17 359.833L807.6 359.753C807.061 359.726 806.54 359.551 806.093 359.248C805.647 358.945 805.293 358.524 805.07 358.033L804.07 355.904C803.846 355.403 803.486 354.976 803.032 354.671C802.577 354.365 802.045 354.194 801.498 354.176C800.95 354.158 800.408 354.295 799.935 354.57C799.461 354.846 799.074 355.249 798.819 355.734L796.819 359.563C796.569 360.032 796.196 360.425 795.74 360.698C795.283 360.971 794.761 361.114 794.229 361.112H784.308C783.654 361.115 783.018 360.898 782.503 360.495C781.988 360.093 781.623 359.528 781.468 358.893L779.088 349.365C778.956 348.834 778.677 348.351 778.284 347.97C777.891 347.589 777.398 347.326 776.863 347.21C776.328 347.095 775.771 347.131 775.256 347.316C774.741 347.501 774.288 347.826 773.948 348.255L759.647 366.331C759.243 366.845 758.679 367.208 758.044 367.363C757.409 367.517 756.741 367.453 756.147 367.181L746.956 363.032C746.475 362.807 745.941 362.717 745.413 362.771C744.884 362.826 744.381 363.023 743.956 363.342L740.666 365.771C740.508 365.889 740.364 366.023 740.236 366.171L731.555 375.779C731.263 376.114 730.899 376.378 730.49 376.551C730.081 376.724 729.638 376.802 729.195 376.779L723.525 376.419C723.216 376.401 722.906 376.428 722.605 376.499L717.494 377.809C716.911 377.961 716.296 377.929 715.732 377.718C715.168 377.507 714.683 377.126 714.344 376.629L713.764 375.769C713.487 375.366 713.112 375.038 712.676 374.816C712.239 374.594 711.753 374.485 711.264 374.5L705.563 374.67C704.906 374.68 704.272 374.921 703.773 375.349L702.373 376.519C702.042 376.797 701.653 376.999 701.234 377.109C700.815 377.219 700.378 377.235 699.952 377.155C699.526 377.076 699.124 376.903 698.773 376.65C698.422 376.396 698.132 376.068 697.923 375.689L696.443 373.01C696.082 372.355 695.484 371.863 694.772 371.634C694.06 371.405 693.287 371.458 692.613 371.78L683.022 376.389L672.411 381.868C672.065 382.046 671.687 382.153 671.299 382.182C670.91 382.211 670.52 382.162 670.151 382.038L661.701 379.239C661.321 379.114 660.919 379.066 660.521 379.099L644.16 380.498C643.605 380.556 643.077 380.767 642.635 381.107C642.193 381.448 641.856 381.906 641.66 382.428L639.289 389.046C639.146 389.444 638.919 389.806 638.622 390.108C638.326 390.409 637.968 390.643 637.573 390.793C637.177 390.943 636.754 391.006 636.333 390.977C635.911 390.948 635.5 390.828 635.129 390.626L635.029 390.576C634.422 390.239 633.714 390.131 633.033 390.27C632.353 390.409 631.745 390.787 631.319 391.336L629.459 393.715C628.965 394.335 628.246 394.734 627.459 394.825L622.338 395.375C622.05 395.404 621.767 395.475 621.498 395.585L613.388 399.054C613.023 399.204 612.632 399.282 612.238 399.284H608.337C607.86 399.284 607.39 399.167 606.969 398.944C606.547 398.721 606.186 398.399 605.917 398.004L605.357 397.185C605.006 396.672 604.501 396.285 603.915 396.078C603.329 395.871 602.692 395.856 602.097 396.035L593.007 398.784C592.383 398.972 591.715 398.947 591.106 398.714L586.886 397.095C586.567 396.969 586.229 396.901 585.886 396.895H576.826C576.433 396.894 576.045 396.976 575.685 397.135L566.685 400.954C566.052 401.227 565.343 401.266 564.685 401.064L560.234 399.734C559.801 399.605 559.344 399.577 558.898 399.654C558.452 399.73 558.03 399.908 557.664 400.174L555.714 401.604C555.124 402.035 554.393 402.231 553.666 402.151C552.938 402.072 552.267 401.723 551.784 401.174L551.494 400.844C551.101 400.395 550.58 400.077 550.001 399.932C549.422 399.788 548.812 399.823 548.254 400.034L541.003 402.803C540.357 403.039 539.649 403.039 539.003 402.803L535.823 401.664C535.242 401.463 534.614 401.446 534.023 401.614L531.023 402.484C530.366 402.673 529.663 402.627 529.037 402.353C528.41 402.079 527.899 401.595 527.593 400.984L526.472 398.734C526.228 398.248 525.854 397.84 525.392 397.554C524.929 397.268 524.396 397.116 523.852 397.115H521.252C520.912 397.12 520.573 397.066 520.252 396.955L510.161 393.415C509.799 393.286 509.414 393.23 509.029 393.25C508.645 393.271 508.268 393.368 507.921 393.535L500.551 397.075C500.154 397.263 499.72 397.362 499.281 397.365H489.97C489.576 397.366 489.185 397.445 488.82 397.595L486.92 398.414C486.325 398.667 485.665 398.716 485.039 398.555C484.414 398.394 483.859 398.032 483.46 397.525C483.187 397.172 482.836 396.888 482.436 396.692C482.035 396.496 481.595 396.394 481.15 396.395H476.449C475.772 396.394 475.115 396.627 474.589 397.055L471.859 399.294C471.298 399.759 470.583 399.996 469.855 399.959C469.127 399.922 468.44 399.613 467.929 399.094L467.309 398.474C466.908 398.071 466.399 397.793 465.843 397.674C465.287 397.555 464.709 397.601 464.179 397.805L461.458 398.854C460.714 399.132 459.891 399.103 459.168 398.774L449.598 394.335C449.429 394.255 449.251 394.194 449.068 394.155L441.557 392.306C440.965 392.158 440.341 392.2 439.774 392.426C439.207 392.652 438.725 393.051 438.397 393.565L433.677 400.924C433.496 401.206 433.364 401.517 433.287 401.844L431.857 408.092C431.685 408.806 431.258 409.432 430.657 409.852L427.536 411.991C427.157 412.253 426.72 412.42 426.262 412.48C425.805 412.539 425.34 412.488 424.906 412.331L418.486 410.052C417.814 409.815 417.08 409.83 416.419 410.095C415.759 410.36 415.217 410.857 414.896 411.492L411.515 417.81C411.293 418.236 411.176 418.709 411.175 419.19V422.039C411.173 422.679 410.961 423.301 410.573 423.81C410.185 424.318 409.642 424.687 409.025 424.859L403.405 426.418C402.809 426.587 402.174 426.559 401.595 426.338L396.694 424.489C396.281 424.33 395.836 424.268 395.394 424.309L386.944 425.079C386.494 425.122 386.039 425.06 385.617 424.897C385.195 424.734 384.817 424.474 384.514 424.139L383.514 423.029C383.097 422.562 382.538 422.246 381.923 422.129L378.073 421.349C377.68 421.275 377.275 421.28 376.884 421.364C376.492 421.448 376.121 421.61 375.793 421.839L370.723 425.449C370.269 425.767 369.736 425.954 369.183 425.988L361.412 426.398C361.118 426.417 360.829 426.477 360.552 426.578L347.061 431.577C346.684 431.72 346.28 431.782 345.876 431.758C345.473 431.734 345.079 431.625 344.721 431.437L340.821 429.438C340.409 429.228 339.953 429.118 339.491 429.118H324.99C324.32 429.118 323.671 428.888 323.15 428.468L319.64 425.659C319.142 425.26 318.528 425.035 317.891 425.017C317.254 424.999 316.629 425.189 316.109 425.559L312.349 428.238C311.969 428.51 311.659 428.868 311.445 429.284C311.231 429.7 311.119 430.16 311.119 430.627"
      stroke="#FABCA9" stroke-miterlimit="10" />
    <path opacity="0.2" d="M865.983 502.681H280.947V502.782H865.983V502.681Z" fill="#9CC1B7" />
    <path opacity="0.3"
      d="M370.953 507.731C373.715 507.731 375.954 505.492 375.954 502.732C375.954 499.971 373.715 497.733 370.953 497.733C368.192 497.733 365.953 499.971 365.953 502.732C365.953 505.492 368.192 507.731 370.953 507.731Z"
      fill="#FABCA9" />
    <path opacity="0.3"
      d="M443.957 507.731C446.719 507.731 448.958 505.492 448.958 502.732C448.958 499.971 446.719 497.733 443.957 497.733C441.196 497.733 438.957 499.971 438.957 502.732C438.957 505.492 441.196 507.731 443.957 507.731Z"
      fill="#FABCA9" />
    <path opacity="0.3"
      d="M516.963 507.731C519.725 507.731 521.963 505.492 521.963 502.732C521.963 499.971 519.725 497.733 516.963 497.733C514.202 497.733 511.963 499.971 511.963 502.732C511.963 505.492 514.202 507.731 516.963 507.731Z"
      fill="#FABCA9" />
    <path opacity="0.3"
      d="M589.965 507.731C592.727 507.731 594.965 505.492 594.965 502.732C594.965 499.971 592.727 497.733 589.965 497.733C587.204 497.733 584.965 499.971 584.965 502.732C584.965 505.492 587.204 507.731 589.965 507.731Z"
      fill="#FABCA9" />
    <path opacity="0.3"
      d="M662.971 507.731C665.733 507.731 667.971 505.492 667.971 502.732C667.971 499.971 665.733 497.733 662.971 497.733C660.209 497.733 657.971 499.971 657.971 502.732C657.971 505.492 660.209 507.731 662.971 507.731Z"
      fill="#FABCA9" />
    <path opacity="0.3"
      d="M735.977 507.731C738.739 507.731 740.977 505.492 740.977 502.732C740.977 499.971 738.739 497.733 735.977 497.733C733.215 497.733 730.977 499.971 730.977 502.732C730.977 505.492 733.215 507.731 735.977 507.731Z"
      fill="#FABCA9" />
    <path opacity="0.3"
      d="M808.979 507.731C811.74 507.731 813.979 505.492 813.979 502.732C813.979 499.971 811.74 497.733 808.979 497.733C806.217 497.733 803.979 499.971 803.979 502.732C803.979 505.492 806.217 507.731 808.979 507.731Z"
      fill="#FABCA9" />
    <path
      d="M239.714 695.51C236.713 690.001 240.114 683.253 244.004 678.344C247.894 673.435 252.614 668.346 252.514 662.057C252.364 653.059 242.814 647.74 235.183 642.971C229.516 639.429 224.292 635.224 219.622 630.444C217.668 628.606 216.05 626.441 214.842 624.045C213.262 620.526 213.302 616.527 213.402 612.678C213.742 599.827 214.379 587 215.312 574.196"
      stroke="#3F3D56" stroke-width="4" stroke-miterlimit="10" />
    <path
      d="M200.803 573.517C200.909 571.166 201.606 568.881 202.83 566.871C204.053 564.862 205.764 563.193 207.803 562.019L210.943 568.228L210.843 560.709C212.345 560.269 213.91 560.08 215.474 560.149C218.236 560.286 220.896 561.238 223.118 562.885C225.339 564.531 227.024 566.799 227.958 569.401C228.892 572.003 229.035 574.824 228.367 577.507C227.7 580.19 226.252 582.616 224.208 584.478C222.163 586.339 219.612 587.554 216.878 587.968C214.144 588.383 211.348 587.978 208.843 586.805C206.338 585.633 204.237 583.745 202.804 581.38C201.372 579.015 200.672 576.279 200.793 573.517H200.803Z"
      fill="#57B894" />
    <path
      d="M225.835 668.486C227.308 671.338 229.716 673.598 232.657 674.887C235.598 676.176 238.892 676.415 241.988 675.564C245.084 674.714 247.794 672.825 249.663 670.215C251.532 667.604 252.446 664.431 252.253 661.227C252.061 658.023 250.772 654.982 248.603 652.615C246.435 650.247 243.518 648.697 240.342 648.224C237.167 647.75 233.925 648.383 231.16 650.015C228.395 651.647 226.275 654.179 225.155 657.188L233.926 664.316L224.275 662.087C224.279 664.314 224.814 666.507 225.835 668.486Z"
      fill="#57B894" />
    <path
      d="M232.764 641.242C236.252 641.488 239.705 640.421 242.445 638.25C245.186 636.08 247.014 632.963 247.572 629.513C248.13 626.063 247.377 622.528 245.46 619.605C243.543 616.683 240.602 614.582 237.215 613.718L237.295 619.496L234.114 613.208C232.273 613.118 230.432 613.392 228.697 614.015C226.961 614.638 225.367 615.598 224.003 616.839C222.64 618.08 221.536 619.578 220.753 621.247C219.971 622.916 219.526 624.723 219.444 626.565C219.361 628.184 219.564 629.805 220.044 631.354C220.887 634.111 222.562 636.541 224.839 638.31C227.115 640.08 229.883 641.104 232.764 641.242V641.242Z"
      fill="#57B894" />
    <path
      d="M198.691 618.577C200.846 618.656 202.989 618.237 204.955 617.352C206.921 616.466 208.656 615.139 210.024 613.474C211.393 611.809 212.358 609.85 212.845 607.75C213.332 605.65 213.327 603.467 212.831 601.369C212.335 599.272 211.361 597.317 209.985 595.658C208.61 593.998 206.869 592.679 204.9 591.802C202.93 590.926 200.785 590.516 198.631 590.604C196.476 590.693 194.372 591.277 192.481 592.312L194.961 599.111L189.861 594.212C187.128 596.715 185.498 600.199 185.331 603.9C185.264 605.2 185.382 606.502 185.681 607.769C186.381 610.739 188.029 613.4 190.377 615.35C192.724 617.3 195.643 618.432 198.691 618.577V618.577Z"
      fill="#57B894" />
    <path opacity="0.1"
      d="M202.692 577.255C205.932 577.605 209.082 578.615 212.332 578.815C215.582 579.015 219.153 578.235 221.213 575.716C222.313 574.356 222.873 572.626 223.803 571.147C224.691 569.763 225.907 568.619 227.343 567.817C228.19 569.587 228.655 571.515 228.709 573.476C228.762 575.437 228.403 577.387 227.654 579.201C226.905 581.014 225.783 582.649 224.361 584.001C222.939 585.353 221.248 586.391 219.399 587.047C217.55 587.704 215.584 587.965 213.627 587.813C211.671 587.66 209.768 587.099 208.043 586.164C206.318 585.23 204.808 583.943 203.612 582.387C202.416 580.832 201.561 579.043 201.102 577.135C201.635 577.155 202.165 577.195 202.692 577.255Z"
      fill="black" />
    <path opacity="0.1"
      d="M198.692 618.576C201.112 618.699 203.523 618.192 205.689 617.103C207.855 616.015 209.701 614.384 211.046 612.368C212.392 610.353 213.191 608.023 213.366 605.606C213.54 603.189 213.084 600.768 212.043 598.581C210.929 599.329 209.971 600.287 209.222 601.4C208.222 602.91 207.612 604.649 206.442 606.039C204.252 608.608 200.522 609.448 197.132 609.298C193.741 609.148 190.471 608.179 187.131 607.869C186.661 607.869 186.191 607.799 185.711 607.789C186.414 610.75 188.059 613.403 190.4 615.348C192.741 617.294 195.651 618.427 198.692 618.576V618.576Z"
      fill="black" />
    <path opacity="0.1"
      d="M232.764 641.242C235.168 641.366 237.563 640.87 239.718 639.8C241.874 638.73 243.717 637.122 245.07 635.132C246.423 633.143 247.24 630.838 247.442 628.441C247.645 626.043 247.226 623.634 246.225 621.446C245.061 622.206 244.044 623.172 243.225 624.295C242.135 625.835 241.455 627.604 240.225 629.024C237.855 631.664 233.875 632.593 230.294 632.503C226.714 632.413 223.464 631.584 220.014 631.314C220.852 634.083 222.528 636.525 224.812 638.303C227.095 640.08 229.873 641.107 232.764 641.242V641.242Z"
      fill="black" />
    <path opacity="0.1"
      d="M225.834 668.486C227.352 671.878 230.157 674.529 233.63 675.855C237.104 677.18 240.961 677.072 244.355 675.554C247.749 674.036 250.4 671.232 251.726 667.76C253.052 664.288 252.944 660.431 251.426 657.038C250.267 657.792 249.229 658.715 248.345 659.778C247.005 661.407 246.125 663.257 244.585 664.776C241.715 667.596 237.085 668.776 232.954 668.866C230.576 668.875 228.198 668.748 225.834 668.486V668.486Z"
      fill="black" />
    <path
      d="M260.886 689.172C260.886 689.172 249.805 688.832 246.465 686.452C243.125 684.073 229.464 681.243 228.604 685.053C227.744 688.862 211.953 704.049 224.454 704.108C236.954 704.168 253.515 702.159 256.856 700.109C260.196 698.06 260.886 689.172 260.886 689.172Z"
      fill="#656380" />
    <path opacity="0.2"
      d="M224.234 702.778C236.745 702.878 253.296 700.839 256.626 698.779C259.166 697.229 260.176 691.681 260.516 689.131H260.886C260.886 689.131 260.186 698.059 256.886 700.129C253.586 702.198 236.995 704.208 224.484 704.128C220.874 704.128 219.634 702.818 219.704 700.919C220.174 702.038 221.544 702.758 224.234 702.778Z"
      fill="black" />
    <path
      d="M959.029 566.108C958.3 568.196 958.024 570.414 958.218 572.617C958.705 574.816 959.736 576.858 961.219 578.555C961.961 579.738 963.116 580.603 964.459 580.985C965.155 581.05 965.856 580.923 966.485 580.618C967.115 580.313 967.649 579.842 968.029 579.255C968.78 578.073 969.227 576.723 969.329 575.326C969.611 571.605 969.426 567.863 968.779 564.188C968.359 561.099 968.249 557.7 967.429 554.71C965.309 554.71 962.859 554.321 961.679 556.34C960.169 558.97 959.809 563.169 959.029 566.108Z"
      fill="#FFC0C6" />
    <path
      d="M970.629 511.069C970.109 512.539 969.379 513.939 968.899 515.428C968.44 516.979 968.106 518.564 967.899 520.167C966.414 529.582 964.411 538.907 961.899 548.101C961.005 550.802 960.499 553.616 960.398 556.46L966.119 556.26C966.657 556.174 967.207 556.295 967.659 556.6C968.149 557.039 968.479 558.009 969.099 557.759C970.172 552.266 970.923 546.714 971.349 541.133C971.579 537.134 971.469 533.215 971.729 529.265C972.229 521.397 974.569 512.429 971.509 504.821C971.624 506.941 971.325 509.063 970.629 511.069V511.069Z"
      fill="#3F3D56" />
    <path opacity="0.1"
      d="M970.629 511.069C970.109 512.539 969.379 513.939 968.899 515.428C968.44 516.979 968.106 518.564 967.899 520.167C966.414 529.582 964.411 538.907 961.899 548.101C961.005 550.802 960.499 553.616 960.398 556.46L966.119 556.26C966.657 556.174 967.207 556.295 967.659 556.6C968.149 557.039 968.479 558.009 969.099 557.759C970.172 552.266 970.923 546.714 971.349 541.133C971.579 537.134 971.469 533.215 971.729 529.265C972.229 521.397 974.569 512.429 971.509 504.821C971.624 506.941 971.325 509.063 970.629 511.069V511.069Z"
      fill="black" />
    <path
      d="M977.741 463.94C976.341 465.14 975.861 467.059 975.451 468.859L972.131 483.476C971.371 486.815 970.611 490.154 970.13 493.543C968.03 507.7 970.461 522.257 968.13 536.374C967.456 539.521 967.008 542.712 966.79 545.922C966.69 551.801 968.96 557.65 968.02 563.448C967.705 564.478 967.705 565.578 968.02 566.608C968.5 567.608 970.12 567.927 970.571 566.958C970.651 566.78 970.701 566.591 970.721 566.398L974.181 544.572C975.011 539.384 975.831 534.115 975.261 528.886C974.871 525.327 973.831 521.767 974.401 518.228C974.776 516.475 975.288 514.753 975.931 513.079C979.271 503.081 978.811 492.214 976.931 481.876C976.551 480.374 976.443 478.817 976.611 477.277C977.071 474.748 979.031 472.808 980.351 470.608C981.351 468.949 983.071 465.3 982.351 463.3C981.611 460.961 979.151 462.73 977.741 463.94Z"
      fill="#3F3D56" />
    <path
      d="M983.279 675.274C982.819 675.226 982.354 675.309 981.939 675.514C981.589 675.769 981.315 676.115 981.149 676.514C980.039 678.804 979.259 681.453 977.149 682.933C976.087 683.597 974.92 684.077 973.698 684.352L964.298 687.032C963.088 687.372 961.708 687.872 961.298 689.031C960.888 690.191 961.768 691.611 962.898 692.291C964.579 693.091 966.441 693.436 968.298 693.29L981.909 693.49C983.202 693.582 984.501 693.45 985.749 693.1C987.339 692.541 988.679 691.271 990.349 691.101C991.709 690.951 993.019 691.541 994.35 691.841C997.12 692.451 999.99 691.841 1002.74 691.141C1003.24 691.072 1003.7 690.848 1004.07 690.501C1004.37 690.068 1004.51 689.547 1004.48 689.021C1004.59 686.692 1004.63 684.372 1004.62 682.023C1004.62 679.913 1004.37 677.464 1002.62 676.304C1001.81 675.843 1000.92 675.566 999.99 675.494C994.41 674.784 988.899 675.314 983.279 675.274Z"
      fill="#575A88" />
    <path
      d="M1019.29 704.878C1018.91 705.787 1018.42 706.649 1017.84 707.447L1012.11 716.126C1009.77 719.655 1007.35 723.434 1007.19 727.663C1011.01 729.133 1015.11 729.725 1019.19 729.393C1021.23 729.341 1023.22 728.721 1024.93 727.603C1027.39 725.793 1028.36 722.604 1029.16 719.685C1029.22 719.296 1029.42 718.941 1029.71 718.685C1030.22 718.335 1030.91 718.685 1031.53 718.555C1032.8 718.395 1033.24 716.795 1033.33 715.556C1033.59 711.602 1033.25 707.633 1032.33 703.778C1032.26 703.297 1032.05 702.848 1031.72 702.489C1031.34 702.203 1030.89 702.033 1030.41 701.999C1027.55 701.509 1024.69 700.939 1021.82 700.519C1018.03 699.909 1020.36 702.149 1019.29 704.878Z"
      fill="#575A88" />
    <path
      d="M971.97 550.241C969.2 553.76 968.31 558.459 968.52 562.928C968.73 567.397 969.96 571.756 970.99 576.115C972.679 583.209 973.902 590.407 974.65 597.661C974.768 599.69 975.104 601.701 975.65 603.659C976.14 605.179 976.9 606.599 977.34 608.128C977.88 609.988 977.93 611.968 978.43 613.837C979.106 615.857 979.97 617.808 981.01 619.666C985.581 629.004 986.561 639.662 986.641 650.059C986.641 652.869 986.641 655.668 986.901 658.458C987.481 664.116 989.231 670.455 985.841 675.014C986.701 678.113 990.841 678.703 994.001 678.293C997.715 677.831 1001.35 676.856 1004.79 675.394C1003.79 673.274 1002.33 670.805 1002.4 668.395C1002.61 666.511 1003.09 664.666 1003.82 662.916C1005.63 657.418 1005.82 651.539 1005.92 645.75C1006 643.964 1005.97 642.175 1005.84 640.391C1005.67 638.745 1005.4 637.109 1005.04 635.492L1001.17 616.107C1000.49 612.701 1000.4 609.205 1000.9 605.769C1001.63 601.695 1003.01 597.765 1004.99 594.131C1009.62 584.783 1011.22 574.246 1012.13 563.848C1012.62 558.169 1012.74 551.85 1009.13 547.441C1006.9 544.896 1003.88 543.171 1000.55 542.542C997.253 541.941 993.886 541.81 990.551 542.153C983.861 542.712 976.12 544.982 971.97 550.241Z"
      fill="#3F3D56" />
    <path
      d="M972.779 552.731C971.499 557.03 974.679 561.219 976.319 565.398C977.259 567.807 977.729 570.397 979.169 572.586C980.949 575.256 984.01 576.835 985.94 579.405C987.87 581.974 988.43 584.984 989.94 587.653C991.45 590.323 993.94 592.542 995.34 595.321C997.461 599.471 997.15 604.449 998.641 608.868C999.701 612.038 1001.69 614.867 1002.46 618.137C1002.8 619.606 1002.89 621.136 1003.27 622.576C1004.16 626.015 1006.6 629.014 1006.85 632.573C1007.01 634.903 1006.23 637.462 1007.46 639.442C1008.2 640.652 1009.54 641.362 1010.46 642.441C1011.13 643.423 1011.62 644.522 1011.89 645.681L1013.89 652.229C1015.82 658.588 1016.04 665.156 1017.89 671.545C1019.74 677.934 1021.05 684.842 1018.89 691.141C1018.02 693.75 1016.57 696.43 1017.3 699.079C1017.61 700.016 1018.12 700.873 1018.8 701.592C1019.48 702.31 1020.3 702.872 1021.22 703.238C1023.07 703.946 1025.03 704.315 1027 704.328C1029.65 704.468 1032.5 704.328 1034.69 702.858C1033.62 694.827 1033.19 686.723 1033.41 678.623C1033.66 673.345 1034.41 668.086 1034.41 662.797C1034.3 659.448 1033.98 656.109 1033.46 652.799C1032.86 647.846 1031.81 642.959 1030.3 638.202C1029.46 636.076 1028.76 633.899 1028.2 631.684C1027.88 630.174 1027.78 628.624 1027.56 627.095C1027.34 625.565 1027.01 624.095 1026.68 622.526L1025.34 616.347C1025.04 614.987 1024.22 613.797 1024.16 612.408L1023.75 603.41C1023.09 588.673 1022.45 573.696 1026 559.419C1023.93 553.281 1020.44 546.812 1014.49 544.242C1012.04 543.264 1009.43 542.765 1006.79 542.773C994.64 542.393 983.76 547.602 972.779 552.731Z"
      fill="#3F3D56" />
    <path
      d="M981.86 451.953C982.431 452.326 982.954 452.765 983.42 453.263C983.975 453.943 984.415 454.709 984.72 455.532C985.852 458.27 986.528 461.174 986.721 464.13C993.21 459.575 999.18 454.322 1004.52 448.464C1002.13 448.644 999.931 446.934 998.791 444.834C997.787 442.658 997.21 440.309 997.091 437.916C997.031 437.466 990.861 440.085 990.361 440.355C988.161 441.555 986.101 442.985 983.95 444.265C982.918 444.896 981.853 445.473 980.76 445.994C979.76 446.454 978.18 446.664 977.35 447.324C975.14 449.103 980.5 451.003 981.86 451.953Z"
      fill="#FFC0C6" />
    <path
      d="M980.86 458.721C980.61 460.651 980.94 462.62 980.65 464.54C980.24 467.309 978.649 469.719 977.449 472.258C974.169 479.387 974.449 487.555 974.299 495.393C974.149 503.971 973.439 512.519 972.719 521.068L971.409 536.714C971.179 539.414 970.949 542.133 970.409 544.803C970.124 545.926 969.986 547.082 969.999 548.242C970.168 549.636 970.581 550.99 971.219 552.241C971.814 553.906 972.766 555.421 974.009 556.68C974.642 557.297 975.454 557.698 976.329 557.825C977.204 557.953 978.097 557.8 978.879 557.39L980.06 553.841C980.103 555.26 980.677 556.613 981.67 557.629C982.663 558.646 984.001 559.252 985.42 559.329C986.439 559.294 987.448 559.119 988.42 558.809L997.671 556.3C999.672 555.848 1001.62 555.177 1003.47 554.3C1007.47 552.171 1010.15 548.172 1011.59 543.893C1013.03 539.614 1013.32 535.065 1013.49 530.566C1013.86 520.178 1013.58 509.69 1011.38 499.572C1010.46 495.323 1009.2 491.144 1008.44 486.865C1007.56 481.092 1007.12 475.259 1007.14 469.419L1006.82 454.962C1006.91 453.168 1006.6 451.378 1005.93 449.713C1005.58 448.892 1004.97 448.203 1004.2 447.745C1003.44 447.288 1002.54 447.084 1001.65 447.164C998.881 447.683 998.231 451.253 996.731 453.642C995.45 455.692 993.3 457.011 991.23 458.261C989.87 459.081 988.17 459.921 986.77 459.161C985.37 458.401 985.38 455.952 983.94 455.322C982.03 454.292 981.03 457.241 980.86 458.721Z"
      fill="#9CC1B7" />
    <path
      d="M994.11 462.78C991.49 469.478 990.11 476.587 988.79 483.665C987.4 491.294 986.15 499.122 987.42 506.77C989.82 521.237 1000.8 532.925 1004.54 547.102C1005.19 549.561 1005.62 552.101 1006.54 554.48C1007.97 558.479 1010.54 561.878 1013.07 565.248C1014.43 567.057 1016.44 569.087 1018.58 568.357C1020.17 567.807 1020.87 565.998 1022.08 564.818C1023.77 563.168 1026.36 562.878 1028.72 562.988C1031.08 563.098 1033.5 563.528 1035.79 562.988C1038.08 562.448 1040.26 560.399 1040.03 557.989C1039.88 556.48 1038.82 555.25 1038.03 553.99C1035.73 550.551 1034.85 546.372 1034.18 542.283C1030.33 518.698 1032.05 494.453 1027.96 470.908C1027.45 467.909 1026.81 464.909 1025.12 462.45C1024.29 461.405 1023.52 460.313 1022.81 459.181C1022.17 457.951 1021.89 456.521 1021.05 455.411C1019.85 453.832 1017.79 453.242 1015.9 452.632C1013.33 451.802 1010.83 450.762 1008.43 449.523C1006.61 448.583 1004.03 445.983 1002.19 447.223C1000.35 448.463 998.96 452.792 997.97 454.672C996.532 457.299 995.243 460.006 994.11 462.78V462.78Z"
      fill="#3F3D56" />
    <path
      d="M1002.03 560.249C1000.61 560.579 999.102 560.129 997.672 560.449C995.322 560.989 993.972 563.378 992.912 565.538C992.521 566.205 992.279 566.948 992.202 567.718C992.175 568.101 992.271 568.483 992.476 568.809C992.681 569.134 992.984 569.386 993.342 569.527C993.738 569.585 994.143 569.533 994.512 569.376C994.881 569.219 995.199 568.963 995.432 568.637C995.89 567.984 996.428 567.389 997.032 566.868C998.692 565.758 1000.95 566.938 1002.24 568.457C1003.53 569.977 1004.5 571.887 1006.24 572.796C1007.25 573.246 1008.33 573.51 1009.43 573.576C1010.59 573.766 1011.77 573.766 1012.92 573.576C1013.5 573.483 1014.05 573.253 1014.53 572.906C1015 572.558 1015.39 572.103 1015.65 571.577C1015.91 570.887 1016.02 570.152 1015.98 569.417L1016.15 559.419C1016.22 558.834 1016.1 558.242 1015.81 557.73C1015.46 557.323 1015 557.031 1014.48 556.89C1012.62 556.18 1008.59 553.771 1006.72 554.98C1004.63 556.46 1005.03 559.559 1002.03 560.249Z"
      fill="#FFC0C6" />
    <path
      d="M982.821 451.792C992.608 451.792 1000.54 443.86 1000.54 434.076C1000.54 424.292 992.608 416.36 982.821 416.36C973.034 416.36 965.1 424.292 965.1 434.076C965.1 443.86 973.034 451.792 982.821 451.792Z"
      fill="#FFC0C6" />
    <path
      d="M981.081 432.147C980.947 431.508 980.638 430.919 980.19 430.444C979.742 429.97 979.171 429.628 978.541 429.458C978.05 429.419 977.562 429.349 977.08 429.248C975.41 428.678 975.45 426.128 974.02 425.108C972.93 424.339 971.43 424.739 970.24 425.318C969.05 425.898 967.85 426.678 966.53 426.608C965.704 426.501 964.935 426.133 964.334 425.557C963.733 424.981 963.332 424.229 963.19 423.409C962.942 421.757 963.259 420.069 964.09 418.62C966.75 413.401 972.32 410.412 977.71 408.132C980.047 407.046 982.525 406.295 985.071 405.903C987.637 405.516 990.256 406.074 992.441 407.472C993.131 407.952 993.732 408.532 994.442 408.982C995.14 409.393 995.861 409.764 996.602 410.092C1003.72 413.661 1007.43 422.619 1005.48 430.347C1004.8 433.037 1003.48 435.566 1003.07 438.296C1003.02 439.037 1002.83 439.761 1002.51 440.435C1001.6 442.035 999.392 442.185 997.512 442.135C997.011 442.178 996.51 442.059 996.082 441.795C995.691 441.404 995.441 440.894 995.372 440.345C994.632 437.346 993.471 434.277 991.041 432.347C989.741 431.347 987.641 430.827 986.581 432.097C986.157 432.768 985.821 433.49 985.581 434.247C985.061 435.316 983.461 436.526 982.171 436.246C980.361 435.816 981.511 433.817 981.081 432.147Z"
      fill="#3F3D56" />
    <path opacity="0.1"
      d="M1024.72 455.802C1022.59 455.552 1022.18 466.71 1020.03 466.72C1019.42 466.72 1019.53 464.37 1019.03 464.72C1018.53 465.07 1020.32 472.718 1020.03 473.318C1018.94 475.568 1021.11 466.01 1020.03 468.259C1018.6 471.199 1019.25 472.158 1018.51 475.348C1016.87 482.346 1008.7 487.425 1010.36 494.404C1012.3 502.04 1013.71 509.8 1014.58 517.629C1014.88 520.128 1014.92 522.649 1014.71 525.157C1014.14 530.596 1011.65 535.625 1009.14 540.494C1006.94 544.753 1004.7 548.992 1002.91 553.431C1002.34 554.51 1002.16 555.755 1002.41 556.95C1003.15 559.2 1006.13 559.44 1008.41 560.089C1013.08 561.419 1017.07 566.088 1021.81 564.998C1023.93 558.56 1023.68 551.771 1025.53 545.243C1027.43 538.554 1031.87 532.735 1033.31 525.937C1033.81 523.125 1034.05 520.274 1034.03 517.419L1034.73 485.876C1034.83 484.001 1034.76 482.121 1034.54 480.257C1034.2 478.341 1033.69 476.459 1033.03 474.628L1029.37 463.63C1028.41 460.691 1027.73 456.162 1024.72 455.802Z"
      fill="black" />
    <path
      d="M1026.24 455.801C1024.11 455.551 1021.96 455.431 1019.81 455.441C1019.18 455.336 1018.54 455.469 1018.01 455.815C1017.47 456.161 1017.08 456.695 1016.92 457.311L1013.65 464.039C1012.12 466.932 1010.91 469.983 1010.04 473.137C1008.4 480.136 1010.22 487.404 1011.88 494.383C1013.82 502.019 1015.23 509.779 1016.1 517.608C1016.4 520.107 1016.44 522.629 1016.23 525.136C1015.66 530.575 1013.17 535.604 1010.66 540.473C1008.46 544.732 1006.22 548.971 1004.43 553.41C1003.86 554.488 1003.68 555.734 1003.93 556.929C1004.67 559.179 1007.65 559.419 1009.93 560.069C1014.6 561.398 1018.59 566.067 1023.33 564.978C1025.45 558.539 1025.2 551.75 1027.05 545.222C1028.95 538.533 1033.39 532.715 1034.83 525.916C1035.33 523.105 1035.58 520.253 1035.55 517.398L1036.24 485.855C1036.35 483.98 1036.28 482.1 1036.05 480.236C1035.72 478.32 1035.22 476.437 1034.55 474.607L1030.89 463.61C1029.93 460.69 1029.25 456.161 1026.24 455.801Z"
      fill="#3F3D56" />
  </g>
  <defs>
    <clipPath id="clip0">
      <rect width="1138" height="741" fill="white" />
    </clipPath>
  </defs>
</svg>