<svg width="902" height="742" viewBox="0 0 902 742" fill="none" xmlns="http://www.w3.org/2000/svg">
  <path
    d="M796.657 601.376C778.486 636.838 755.438 671.135 726.276 702.175C725.628 702.876 724.974 703.559 724.314 704.255L655.221 671.544C655.643 670.842 656.107 670.054 656.605 669.192C686.285 618.409 865.447 308.631 859.786 238.47C860.446 244.256 881.682 435.622 796.657 601.376Z"
    fill="#9CC1B7" />
  <path
    d="M739.606 708.486C738.638 709.036 737.647 709.574 736.649 710.094L684.816 685.556C685.541 685.041 686.385 684.433 687.356 683.75C703.235 672.348 750.454 638.14 796.657 601.376C846.31 561.869 894.799 519.419 902 499.157C900.537 503.803 855.09 645.041 739.606 708.486Z"
    fill="#9CC1B7" />
  <path
    d="M266.971 742C414.415 742 533.942 730.165 533.942 715.567C533.942 700.968 414.415 689.133 266.971 689.133C119.527 689.133 0 700.968 0 715.567C0 730.165 119.527 742 266.971 742Z"
    fill="#9CC1B7" />
  <path
    d="M120.79 727.989C164.968 727.989 200.782 692.175 200.782 647.996C200.782 603.817 164.968 568.002 120.79 568.002C76.6122 568.002 40.7988 603.817 40.7988 647.996C40.7988 692.175 76.6122 727.989 120.79 727.989Z"
    fill="#57B894" />
  <path
    d="M152.831 614.427H88.747C85.9153 614.43 83.2005 615.557 81.1982 617.559C79.1959 619.561 78.0696 622.276 78.0664 625.108V670.883C78.0696 673.715 79.1959 676.43 81.1982 678.432C83.2005 680.435 85.9153 681.561 88.747 681.564H152.831C155.663 681.561 158.377 680.435 160.38 678.432C162.382 676.43 163.508 673.715 163.512 670.883V625.108C163.508 622.276 162.382 619.561 160.38 617.559C158.377 615.557 155.663 614.43 152.831 614.427V614.427ZM152.831 620.531C153.213 620.532 153.594 620.582 153.964 620.678L120.796 647.138L87.8222 620.625C88.1265 620.562 88.4363 620.531 88.747 620.531H152.831ZM152.831 675.461H88.747C87.5334 675.459 86.37 674.977 85.5118 674.119C84.6537 673.26 84.171 672.097 84.1696 670.883V625.519L118.877 653.426C119.417 653.86 120.09 654.098 120.783 654.099C121.477 654.1 122.15 653.865 122.692 653.433L157.408 625.739V670.883C157.407 672.097 156.924 673.26 156.066 674.119C155.208 674.977 154.044 675.459 152.831 675.461V675.461Z"
    fill="#F4FFFC" />
  <path d="M340.371 445.242L275.01 449.445L257.479 387.389L314.926 373.926L340.371 445.242Z" fill="#2F2E41" />
  <path
    d="M429.495 526.507L447.394 526.654C449.205 526.669 450.997 526.288 452.646 525.539C454.295 524.79 455.761 523.69 456.941 522.317C458.121 520.943 458.988 519.328 459.48 517.585C459.972 515.842 460.078 514.013 459.791 512.225V512.225C459.481 510.3 458.724 508.475 457.581 506.897C456.438 505.318 454.94 504.03 453.208 503.136C451.476 502.242 449.558 501.767 447.609 501.749C445.66 501.732 443.734 502.172 441.986 503.034L425.107 511.363L367.377 524.238L342.644 498.951L328.438 522.35L361.812 548.135L429.495 526.507Z"
    fill="#FFB8B8" />
  <path
    d="M426.141 711.43L405.053 715.485C390.649 670.08 375.044 627.082 375.045 593.825C354.661 616.512 329.383 629.491 299.617 633.567L302.861 583.281L327.193 570.304L364.432 553.116C367.692 551.612 371.209 550.742 374.795 550.553C381.767 550.186 388.628 552.411 394.058 556.8C399.487 561.188 403.101 567.43 404.204 574.324L426.141 711.43Z"
    fill="#FFB8B8" />
  <path
    d="M422.894 691.153C422.894 691.153 424.916 690.297 432.992 700.864C432.992 700.864 458.779 705.666 454.514 717.294C450.249 728.922 417.092 728.557 413.941 726.78C410.79 725.004 385.712 725.04 387.445 717.14C389.179 709.239 399.169 700.409 399.169 700.409C399.169 700.409 403.762 709.716 410.901 709.755C420.461 709.808 423.705 701.697 422.083 693.586C422.068 693.51 422.956 691.202 422.894 691.153Z"
    fill="#2F2E41" />
  <path
    d="M260.632 663.497C260.632 663.497 263.792 672.134 249.567 677.337C249.567 677.337 235.615 703.754 224.414 695.179C213.214 686.604 224.837 650.672 227.835 647.847C230.834 645.022 239.285 617.738 247.289 622.298C255.293 626.858 261.513 640.711 261.513 640.711C261.513 640.711 235.74 648.987 247.932 668.143C247.932 668.143 253.247 668.503 260.632 663.497Z"
    fill="#2F2E41" />
  <path
    d="M290.107 434.433C304.775 434.433 316.665 422.542 316.665 407.874C316.665 393.206 304.775 381.315 290.107 381.315C275.439 381.315 263.549 393.206 263.549 407.874C263.549 422.542 275.439 434.433 290.107 434.433Z"
    fill="#FFB8B8" />
  <path
    d="M312.999 478.248H266.77L257.037 449.861C273.91 444.711 269.969 430.084 266.77 415.796H312.999C304.037 433.672 292.903 458.97 314.621 463.649L312.999 478.248Z"
    fill="#FFB8B8" />
  <path
    d="M325.164 627.484L316.759 633.872C313.145 636.619 308.876 638.372 304.375 638.959C299.874 639.546 295.297 638.945 291.1 637.217V637.217C267.027 619.173 247.394 624.58 231.894 651.816C213.301 630.833 211.246 600.442 227.838 569.088L319.892 571.115L338.546 565.438L325.164 627.484Z"
    fill="#2F2E41" />
  <path
    d="M294.508 721.456C289.233 723.079 283.555 722.794 278.469 720.651C273.383 718.508 269.214 714.644 266.691 709.736C258.418 702.449 251.438 692.016 245.384 679.33C241.04 670.023 237.31 660.442 234.218 650.649C230.029 637.71 237.033 623.574 250.071 619.703C250.459 619.588 250.851 619.48 251.248 619.378C268.653 614.909 286.526 624.948 292.475 641.904L309.774 691.208C310.822 694.193 311.256 697.359 311.05 700.516C310.845 703.673 310.004 706.757 308.579 709.581C307.153 712.405 305.172 714.913 302.754 716.953C300.336 718.994 297.531 720.525 294.508 721.456V721.456Z"
    fill="#FFB8B8" />
  <path opacity="0.2" d="M242.438 673.715C242.438 673.715 262.714 696.425 266.769 709.402Z" fill="black" />
  <path
    d="M163.798 566.539L157.012 583.102C156.325 584.778 156.012 586.583 156.095 588.392C156.178 590.202 156.654 591.971 157.491 593.577C158.328 595.183 159.505 596.588 160.941 597.692C162.376 598.797 164.035 599.575 165.802 599.972V599.972C167.704 600.4 169.679 600.375 171.57 599.9C173.46 599.425 175.212 598.513 176.686 597.237C178.16 595.961 179.313 594.357 180.053 592.554C180.794 590.751 181.101 588.799 180.949 586.856L179.487 568.09L188.982 509.708L221.647 496.139L205.201 474.256L168.863 495.663L163.798 566.539Z"
    fill="#FFB8B8" />
  <path
    d="M325.976 569.088C302.672 608.232 265.195 601.362 225.406 570.71C242.186 558.163 231.894 522.046 217.295 519.613C202.199 517.097 200.384 486.223 194.586 470.949L265.147 444.995L284.207 459.999L303.266 455.538L311.08 458.311C316.165 460.116 320.576 463.434 323.719 467.821C326.862 472.207 328.587 477.45 328.661 482.846C312.648 505.98 300.794 530.657 325.976 569.088Z"
    fill="#57B894" />
  <path
    d="M334.897 537.456C334.897 537.456 331.306 518.938 319.516 524.75C307.727 530.562 306.916 514.341 306.916 514.341L316.243 460.405L354.362 500.958L334.897 537.456Z"
    fill="#57B894" />
  <path
    d="M314.914 373.693C314.914 373.693 328.373 378.74 328.562 396.659C328.554 399.674 328.125 402.673 327.287 405.569C326.383 408.854 325.617 415.992 331.421 425.567C335.213 431.783 338.635 438.217 341.668 444.837V444.837L326.45 446.169L324.159 420.942C323.048 408.711 320.143 396.71 315.536 385.326L315.44 385.088C315.44 385.088 308.357 397.15 295.104 396.66L300.012 392.101C300.012 392.101 283.353 398.207 274.312 399.383C273.281 399.517 272.305 399.931 271.491 400.578C270.677 401.226 270.055 402.084 269.692 403.059C269.329 404.034 269.239 405.09 269.431 406.112C269.624 407.135 270.092 408.085 270.785 408.861C270.837 408.92 270.891 408.978 270.945 409.037C276.415 414.928 287.285 428.603 280.272 438.771C273.26 448.94 278.835 451.99 278.835 451.99L268.632 445.924L264.003 442.909L263.863 446.696L239.354 442.944C239.354 442.944 232.762 441.752 247.559 426.184C247.559 426.184 251.54 420.073 250.099 414.621C248.903 410.475 248.71 406.103 249.536 401.867C253.375 384.237 267.163 349.414 314.914 373.693Z"
    fill="#2F2E41" />
  <path
    d="M799.191 172.93H795.192V63.3946C795.192 46.5813 788.513 30.4567 776.624 18.5679C764.736 6.67906 748.612 0 731.799 0H499.737C482.924 0 466.8 6.67906 454.911 18.5679C443.023 30.4567 436.344 46.5813 436.344 63.3946V664.318C436.344 681.131 443.023 697.256 454.911 709.145C466.8 721.033 482.924 727.712 499.737 727.712H731.798C748.611 727.712 764.735 721.033 776.624 709.145C788.512 697.256 795.191 681.131 795.191 664.318V250.9H799.19L799.191 172.93Z"
    fill="#3F3D56" />
  <path
    d="M734.355 16.4916H704.063C705.457 19.9072 705.989 23.6132 705.613 27.283C705.237 30.9528 703.964 34.4738 701.906 37.5357C699.849 40.5976 697.07 43.1064 693.814 44.8411C690.559 46.5758 686.926 47.4831 683.237 47.483H550.293C546.604 47.4827 542.972 46.5753 539.717 44.8407C536.462 43.1061 533.683 40.5976 531.626 37.5361C529.569 34.4747 528.296 30.9542 527.919 27.2849C527.543 23.6156 528.075 19.91 529.468 16.4946H501.171C488.615 16.4946 476.573 21.4827 467.694 30.3614C458.816 39.2401 453.828 51.2822 453.828 63.8386V663.877C453.828 676.433 458.816 688.475 467.694 697.354C476.573 706.233 488.615 711.221 501.171 711.221H734.346C746.902 711.221 758.944 706.233 767.822 697.354C776.701 688.475 781.689 676.433 781.689 663.877V663.877V63.8356C781.689 51.2792 776.701 39.237 767.822 30.3583C758.944 21.4796 746.902 16.4916 734.346 16.4916H734.355V16.4916Z"
    fill="#F4FFFC" />
  <path
    d="M618.165 677.689C632.523 677.689 644.162 666.049 644.162 651.691C644.162 637.332 632.523 625.693 618.165 625.693C603.807 625.693 592.168 637.332 592.168 651.691C592.168 666.049 603.807 677.689 618.165 677.689Z"
    fill="#9CC1B7" />
  <path
    d="M512.699 411.263C510.242 411.263 508.242 413.546 508.242 416.351C508.242 419.156 510.242 421.438 512.699 421.438H722.819C725.277 421.438 727.276 419.156 727.276 416.351C727.276 413.546 725.277 411.263 722.819 411.263H512.699Z"
    fill="#9CC1B7" />
  <path
    d="M512.699 531.253C510.242 531.253 508.242 533.536 508.242 536.341C508.242 539.146 510.242 541.428 512.699 541.428H722.819C725.277 541.428 727.276 539.146 727.276 536.341C727.276 533.536 725.277 531.253 722.819 531.253H512.699Z"
    fill="#9CC1B7" />
  <path
    d="M512.699 441.788C510.242 441.788 508.242 444.071 508.242 446.876C508.242 449.681 510.242 451.963 512.699 451.963H603.114C605.572 451.963 607.572 449.681 607.572 446.876C607.572 444.071 605.572 441.788 603.114 441.788H512.699Z"
    fill="#9CC1B7" />
  <path
    d="M512.699 470.884C510.242 470.884 508.242 473.167 508.242 475.972C508.242 478.777 510.242 481.059 512.699 481.059H722.819C725.277 481.059 727.276 478.777 727.276 475.972C727.276 473.167 725.277 470.884 722.819 470.884H512.699Z"
    fill="#9CC1B7" />
  <path
    d="M512.699 501.409C510.242 501.409 508.242 503.691 508.242 506.496C508.242 509.301 510.242 511.584 512.699 511.584H603.114C605.572 511.584 607.572 509.301 607.572 506.496C607.572 503.691 605.572 501.409 603.114 501.409H512.699Z"
    fill="#9CC1B7" />
  <path
    d="M552.366 179.612H683.165C684.61 179.614 685.996 180.188 687.017 181.21C688.039 182.232 688.614 183.617 688.615 185.062V321.287C688.614 322.732 688.039 324.118 687.017 325.139C685.996 326.161 684.61 326.736 683.165 326.738H552.366C550.921 326.736 549.536 326.161 548.514 325.139C547.492 324.118 546.918 322.732 546.916 321.287V185.062C546.918 183.617 547.492 182.232 548.514 181.21C549.536 180.188 550.921 179.614 552.366 179.612Z"
    fill="#57B894" />
  <path
    d="M655.295 298.645C655.782 298.646 656.263 298.551 656.713 298.365C657.163 298.18 657.571 297.907 657.915 297.564C658.26 297.22 658.533 296.812 658.719 296.363C658.905 295.913 659.001 295.432 659.001 294.945C659.001 294.459 658.905 293.977 658.719 293.528C658.533 293.079 658.26 292.67 657.915 292.327C657.571 291.983 657.163 291.711 656.713 291.525C656.263 291.339 655.782 291.244 655.295 291.245H580.237C579.751 291.244 579.269 291.339 578.82 291.525C578.37 291.711 577.961 291.983 577.617 292.327C577.273 292.67 577 293.079 576.814 293.528C576.627 293.977 576.531 294.459 576.531 294.945C576.531 295.432 576.627 295.913 576.814 296.363C577 296.812 577.273 297.22 577.617 297.564C577.961 297.907 578.37 298.18 578.82 298.365C579.269 298.551 579.751 298.646 580.237 298.645H655.295Z"
    fill="#F4FFFC" />
  <path
    d="M655.295 276.845C656.276 276.845 657.217 276.455 657.911 275.761C658.605 275.067 658.995 274.126 658.995 273.145C658.995 272.164 658.605 271.222 657.911 270.529C657.217 269.835 656.276 269.445 655.295 269.445H580.237C579.751 269.445 579.27 269.541 578.821 269.726C578.372 269.912 577.964 270.185 577.621 270.529C577.277 270.872 577.005 271.28 576.819 271.729C576.633 272.178 576.537 272.659 576.537 273.145C576.537 273.631 576.633 274.112 576.819 274.561C577.005 275.01 577.277 275.418 577.621 275.761C577.964 276.105 578.372 276.377 578.821 276.563C579.27 276.749 579.751 276.845 580.237 276.845H655.295Z"
    fill="#F4FFFC" />
  <path
    d="M617.767 207.704C622.373 207.704 626.876 209.07 630.706 211.629C634.536 214.188 637.521 217.826 639.284 222.082C641.047 226.338 641.508 231.021 640.609 235.538C639.71 240.056 637.492 244.206 634.235 247.464C630.978 250.721 626.828 252.939 622.31 253.838C617.792 254.736 613.11 254.275 608.854 252.512C604.598 250.75 600.961 247.764 598.402 243.934C595.842 240.104 594.477 235.601 594.477 230.995C594.484 224.82 596.94 218.9 601.306 214.533C605.672 210.167 611.592 207.711 617.767 207.704V207.704Z"
    fill="#F4FFFC" />
</svg>