<svg width="954" height="550" viewBox="0 0 954 550" fill="none" xmlns="http://www.w3.org/2000/svg">
  <g clip-path="url(#clip0)">
    <path opacity="0.5"
      d="M236.741 360.202C179.061 340.267 113.111 323.393 59.2207 352.04C52.3907 355.671 45.6607 360.242 41.9807 367.044C32.2607 384.938 47.7107 408.144 40.1807 427.059C32.6507 445.974 4.31069 455.496 6.63069 475.701C7.24069 480.983 10.1007 485.764 13.4707 489.885C34.5807 515.681 73.2807 518.292 105.991 511.891C138.701 505.489 170.691 492.216 203.991 493.886C235.991 495.536 265.431 510.89 294.751 523.814C344.181 545.659 401.911 561.333 451.301 539.377C473.931 529.315 492.641 512.181 514.301 500.218C543.491 484.244 577.043 478.086 610.001 482.653C632.001 485.754 653.001 493.556 674.531 498.937C723.431 511.15 774.471 510.75 824.861 510.27C834.241 510.18 843.771 510.07 852.761 507.389C866.071 503.388 877.051 494.176 887.621 485.164C901.511 473.331 916.141 460.327 920.621 442.633C925.911 421.628 914.961 399.302 898.721 385.028C882.481 370.755 861.721 362.953 841.461 355.431C836.461 353.59 831.121 351.72 826.001 353.11C822.641 354.03 819.811 356.271 817.301 358.681C802.921 372.525 790.771 395.941 771.161 392.18C764.161 390.84 758.431 385.968 752.891 381.467C723.311 357.461 683.521 338.926 647.821 352.19C621.711 361.892 603.281 386.809 576.821 395.601C558.001 401.863 537.551 399.152 517.751 400.372C488.951 402.133 460.921 412.315 432.081 411.695C358.541 410.115 297.271 339.777 224.031 346.478C218.291 346.999 212.031 348.319 208.511 352.86"
      fill="#FABCA9" />
    <path
      d="M143.999 293.295C143.999 293.295 82.8892 330.194 195.579 387.029C195.579 387.029 220.409 340.917 192.959 303.318C187.632 295.992 179.804 290.874 170.958 288.935C162.111 286.996 152.861 288.369 144.959 292.795L143.999 293.295Z"
      fill="#FABCA9" />
    <path d="M144.729 292.524C144.729 292.524 197.049 332.534 195.589 386.998" stroke="#3F3D56"
      stroke-miterlimit="10" />
    <path
      d="M917.149 262.557C929.529 307.838 876.719 436.841 876.719 436.841C876.719 436.841 765.6 352.69 753.21 307.408C749.969 296.551 748.93 285.156 750.154 273.892C751.379 262.628 754.842 251.722 760.34 241.816C765.838 231.909 773.26 223.202 782.171 216.206C791.081 209.209 801.299 204.065 812.225 201.075C823.151 198.085 834.565 197.309 845.795 198.794C857.025 200.279 867.845 203.994 877.619 209.721C887.393 215.448 895.924 223.071 902.711 232.143C909.498 241.215 914.403 251.552 917.139 262.547L917.149 262.557Z"
      fill="#FABCA9" />
    <path opacity="0.1"
      d="M917.149 262.557C929.529 307.838 876.719 436.841 876.719 436.841C876.719 436.841 765.6 352.69 753.21 307.408C749.969 296.551 748.93 285.156 750.154 273.892C751.379 262.628 754.842 251.722 760.34 241.816C765.838 231.909 773.26 223.202 782.171 216.206C791.081 209.209 801.299 204.065 812.225 201.075C823.151 198.085 834.565 197.309 845.795 198.794C857.025 200.279 867.845 203.994 877.619 209.721C887.393 215.448 895.924 223.071 902.711 232.143C909.498 241.215 914.403 251.552 917.139 262.547L917.149 262.557Z"
      fill="black" />
    <path d="M813.211 203.251C813.211 203.251 882.381 307.698 877.211 437.091" stroke="#3F3D56"
      stroke-miterlimit="10" />
    <path
      d="M934.799 345.318C934.799 345.318 872.079 311.189 880.019 437.171C880.019 437.171 932.339 435.301 950.909 392.61C954.54 384.307 954.999 374.96 952.2 366.341C949.4 357.722 943.536 350.431 935.719 345.848L934.799 345.318Z"
      fill="#FABCA9" />
    <path d="M935.829 345.538C935.829 345.538 927.729 410.934 880.02 437.171" stroke="#3F3D56" stroke-miterlimit="10" />
    <path
      d="M16.5587 331.274C16.5587 331.274 -44.5813 368.164 68.1187 424.968C68.1187 424.968 92.9487 378.856 65.4987 341.257C60.1718 333.931 52.3437 328.814 43.4973 326.874C34.6508 324.935 25.4006 326.308 17.4987 330.734L16.5587 331.274Z"
      fill="#FABCA9" />
    <path d="M17.2598 330.504C17.2598 330.504 69.5798 370.514 68.1198 424.978" stroke="#3F3D56"
      stroke-miterlimit="10" />
    <path
      d="M779.43 379.297H715.18C716.658 376.323 717.425 373.045 717.42 369.724V77.0896C717.42 71.3833 715.153 65.9108 711.12 61.8758C707.086 57.8409 701.614 55.5741 695.91 55.5741H198.58C192.875 55.5741 187.404 57.8409 183.37 61.8758C179.336 65.9108 177.07 71.3833 177.07 77.0896V369.734C177.064 373.055 177.831 376.333 179.31 379.307H112.79C112.04 379.307 111.298 379.455 110.605 379.743C109.913 380.031 109.284 380.452 108.756 380.984C108.227 381.516 107.808 382.147 107.524 382.841C107.24 383.535 107.096 384.278 107.1 385.028V389.619C107.1 398.06 110.452 406.156 116.42 412.125C122.387 418.094 130.481 421.447 138.92 421.447H753.3C761.739 421.447 769.832 418.094 775.8 412.125C781.767 406.156 785.12 398.06 785.12 389.619V385.028C785.125 384.277 784.982 383.533 784.698 382.838C784.415 382.143 783.996 381.51 783.467 380.978C782.938 380.445 782.309 380.022 781.616 379.734C780.923 379.445 780.18 379.297 779.43 379.297ZM383.54 397.501L378 391.25H514.78L508.68 397.511L383.54 397.501Z"
      fill="url(#paint0_linear)" />
    <path
      d="M688.02 59.7151H206.42C193.574 59.7151 183.16 70.1316 183.16 82.981V364.523C183.16 377.372 193.574 387.789 206.42 387.789H688.02C700.866 387.789 711.28 377.372 711.28 364.523V82.981C711.28 70.1316 700.866 59.7151 688.02 59.7151Z"
      fill="#3F3D56" />
    <path d="M699.049 107.538H194.279V375.556H699.049V107.538Z" fill="white" />
    <path
      d="M446.671 88.6325C449.128 88.6325 451.121 86.6397 451.121 84.1814C451.121 81.7231 449.128 79.7302 446.671 79.7302C444.213 79.7302 442.221 81.7231 442.221 84.1814C442.221 86.6397 444.213 88.6325 446.671 88.6325Z"
      fill="white" />
    <path
      d="M524.599 376.106L507.259 393.901H384.999L369.329 376.106H120.339C118.865 376.106 117.45 376.692 116.408 377.735C115.365 378.778 114.779 380.193 114.779 381.667V386.149C114.779 394.399 118.056 402.311 123.888 408.145C129.721 413.979 137.631 417.256 145.879 417.256H746.339C750.423 417.256 754.467 416.452 758.241 414.889C762.014 413.325 765.442 411.034 768.33 408.145C771.218 405.257 773.509 401.827 775.072 398.053C776.635 394.279 777.439 390.234 777.439 386.149V381.667C777.439 380.193 776.853 378.778 775.811 377.735C774.768 376.692 773.354 376.106 771.879 376.106H524.599Z"
      fill="#3F3D56" />
    <path d="M258.77 124.222V352.2H635.669" stroke="#3F3D56" stroke-width="2" stroke-miterlimit="10" />
    <path opacity="0.5" d="M331.029 283.252H292.119V343.307H331.029V283.252Z" fill="#FABCA9" />
    <path opacity="0.7" d="M397.74 229.869H358.83V343.307H397.74V229.869Z" fill="#FABCA9" />
    <path opacity="0.5" d="M464.449 262.117H425.539V343.298H464.449V262.117Z" fill="#FABCA9" />
    <path opacity="0.8" d="M531.16 212.074H492.25V343.308H531.16V212.074Z" fill="#FABCA9" />
    <path d="M597.871 165.362H558.961V343.298H597.871V165.362Z" fill="#FABCA9" />
    <path d="M311.021 246.553L378.841 185.387L445.551 243.212L511.151 173.154L577.861 145.347" stroke="#3F3D56"
      stroke-width="2" stroke-miterlimit="10" />
    <path
      d="M311.02 254.335C315.317 254.335 318.8 250.851 318.8 246.553C318.8 242.255 315.317 238.771 311.02 238.771C306.723 238.771 303.24 242.255 303.24 246.553C303.24 250.851 306.723 254.335 311.02 254.335Z"
      fill="#FABCA9" />
    <path
      d="M444.44 249.884C448.737 249.884 452.22 246.4 452.22 242.102C452.22 237.804 448.737 234.32 444.44 234.32C440.143 234.32 436.66 237.804 436.66 242.102C436.66 246.4 440.143 249.884 444.44 249.884Z"
      fill="#FABCA9" />
    <path
      d="M512.26 180.936C516.557 180.936 520.04 177.452 520.04 173.154C520.04 168.856 516.557 165.372 512.26 165.372C507.964 165.372 504.48 168.856 504.48 173.154C504.48 177.452 507.964 180.936 512.26 180.936Z"
      fill="#FABCA9" />
    <path
      d="M378.841 192.049C383.137 192.049 386.621 188.565 386.621 184.267C386.621 179.969 383.137 176.485 378.841 176.485C374.544 176.485 371.061 179.969 371.061 184.267C371.061 188.565 374.544 192.049 378.841 192.049Z"
      fill="#FABCA9" />
    <path
      d="M577.86 153.129C582.157 153.129 585.64 149.645 585.64 145.347C585.64 141.049 582.157 137.565 577.86 137.565C573.563 137.565 570.08 141.049 570.08 145.347C570.08 149.645 573.563 153.129 577.86 153.129Z"
      fill="#FABCA9" />
    <path
      d="M867.309 385.848C863.209 384.498 857.129 382.937 852.309 383.488C847.719 381.817 836.929 377.486 829.559 370.964C829.772 364.552 829.608 358.133 829.069 351.739C825.299 308.859 833.779 280.591 833.779 280.591C833.779 280.591 840.439 259.026 839.709 241.131C840.139 241.942 840.379 242.422 840.379 242.422C840.959 226.988 846.219 211.014 850.159 201.061C850.309 201.018 850.457 200.965 850.599 200.901L854.999 190.458C855.35 189.849 855.628 189.201 855.829 188.528L856.539 186.877L856.329 186.787C856.399 186.517 856.469 186.227 856.539 185.937C859.349 174.044 861.539 145.837 861.539 145.837C869.079 116.149 851.179 97.8248 851.179 97.8248L820.799 71.6782C820.95 72.0185 821.051 72.379 821.099 72.7484L820.849 72.5284C820.419 71.2981 819.949 69.8277 819.489 68.1473C820.561 67.3776 821.564 66.5176 822.489 65.5766C825.943 62.3137 828.319 58.0736 829.299 53.4235C829.888 49.7871 830.039 46.0931 829.749 42.4207L829.249 29.8075C829.227 27.339 828.975 24.8779 828.499 22.4556C826.209 12.4531 815.959 5.4513 805.669 4.99118C802.395 4.97212 799.123 5.1458 795.869 5.51132C793.208 5.72996 790.537 5.78675 787.869 5.68136C787.565 5.69746 787.264 5.61693 787.009 5.45131C786.778 5.22027 786.645 4.90819 786.639 4.58108C786.587 3.99566 786.654 3.40568 786.836 2.84689C787.018 2.28809 787.312 1.77211 787.699 1.33025C788.102 0.977126 788.571 0.708423 789.079 0.540054L788.349 0.710096C788.709 0.426216 789.115 0.2063 789.549 0.0599365C786.882 0.529034 784.317 1.45988 781.969 2.81064C781.322 3.2357 780.728 3.73598 780.199 4.30101C778.801 5.52826 777.892 7.21874 777.639 9.06223C776.386 8.00414 775.452 6.61909 774.939 5.06121C774.78 4.42418 774.78 3.75774 774.939 3.12071C774.759 3.34077 774.586 3.56749 774.419 3.80088C774.419 3.73086 774.419 3.66085 774.419 3.59083C772.487 5.96687 771.119 8.75093 770.419 11.7329C770.15 11.41 769.948 11.0368 769.824 10.6349C769.701 10.2331 769.658 9.81072 769.699 9.39231C769.549 9.86243 769.409 10.3325 769.279 10.8027C769.234 10.4909 769.234 10.1742 769.279 9.86242C768.102 13.4685 767.57 17.2543 767.709 21.0453C767.709 24.8262 769.389 30.7177 773.439 32.0481C773.649 32.1181 773.859 32.1681 774.079 32.2181C771.802 35.7572 770.438 39.8063 770.109 44.0024C769.781 48.1986 770.499 52.4106 772.199 56.2609C773.898 60.1112 776.527 63.4795 779.848 66.0637C783.169 68.648 787.08 70.3675 791.229 71.068C791.296 71.5281 791.359 72.0116 791.419 72.5184H791.579C791.689 73.5186 791.779 74.6189 791.839 75.7392C790.817 76.7409 789.698 77.6388 788.499 78.4199C785.099 80.4302 781.307 81.6856 777.379 82.1008C772.689 82.4689 768.131 83.8329 764.009 86.1018C759.159 88.8125 753.809 92.7635 752.129 97.5647C749.329 105.567 733.909 118.02 723.569 119.57L719.889 119.36L719.619 119.28V119.35L718.719 119.3H718.669H718.429V119.35L717.499 119.3C717.499 119.3 717.409 119.73 717.279 120.491C712.079 118.7 701.029 113.739 686.649 100.686C670.649 86.1519 648.999 89.0126 640.649 90.8431C640.365 90.9057 640.107 91.0536 639.909 91.2669C639.711 91.4802 639.583 91.7487 639.542 92.0368C639.501 92.3248 639.548 92.6186 639.678 92.8789C639.808 93.1392 640.014 93.3537 640.269 93.4937C643.639 95.3442 648.859 98.0349 651.269 98.335C651.269 98.335 646.269 103.566 651.589 106.337C652.228 106.646 652.938 106.773 653.644 106.704C654.35 106.635 655.023 106.373 655.589 105.947C658.169 104.056 665.339 108.337 675.729 110.568C675.729 110.568 705.049 140.916 719.609 145.577C719.945 146.24 720.315 146.884 720.719 147.507L721.619 147.437V147.507H721.999L722.109 148.508C722.109 148.508 744.749 147.317 752.109 139.095C752.63 138.629 753.109 138.116 753.539 137.565L745.669 236.59H745.739L745.669 237.53H751.459C751.955 249.709 751.43 261.908 749.889 274V338.556C749.889 338.556 749.589 344.238 761.389 352.56C773.761 361.175 785.684 370.42 797.109 380.257L798.539 381.497C796.369 401.252 791.829 438.071 788.039 439.442L790.379 439.852C786.379 444.923 775.019 458.857 771.559 459.227C767.319 459.697 764.489 466.299 771.559 467.709C785.676 470.153 800.191 468.722 813.559 463.568C814.892 463.042 816.011 462.084 816.736 460.847C817.461 459.611 817.751 458.167 817.559 456.746L816.189 446.344C816.449 446.488 816.658 446.708 816.789 446.974C817.729 449.804 816.789 443.203 816.789 443.203C820.663 430.748 823.707 418.051 825.899 405.193L839.899 417.296C839.899 417.296 840.179 416.946 840.669 416.296C844.099 424.078 850.219 440.002 848.849 451.665C846.969 467.669 864.849 453.545 862.979 444.123C861.459 436.501 868.259 404.193 870.909 392.11C871.195 390.805 870.984 389.441 870.319 388.283C869.653 387.126 868.58 386.257 867.309 385.848V385.848Z"
      fill="url(#paint1_linear)" />
    <path
      d="M720.999 124.452C720.999 124.452 707.659 122.151 687.879 104.207C672.229 90.013 651.119 92.8037 642.979 94.5942C642.702 94.6541 642.449 94.7976 642.256 95.0052C642.062 95.2129 641.937 95.4748 641.897 95.7558C641.857 96.0367 641.903 96.3233 642.031 96.577C642.158 96.8307 642.36 97.0393 642.609 97.1748C645.899 98.9753 650.999 101.606 653.389 101.906C653.389 101.906 648.459 107.007 653.699 109.738C654.327 110.046 655.027 110.174 655.723 110.107C656.419 110.04 657.082 109.78 657.639 109.358C660.159 107.517 667.159 111.699 677.309 113.869C677.309 113.869 716.869 154.819 726.069 147.878L720.999 124.452Z"
      fill="#FEC3BE" />
    <path
      d="M789.109 68.7776C789.109 68.7776 792.789 84.4216 789.109 95.4644L805.669 97.7649L820.389 90.4031V80.7406C820.389 80.7406 813.489 66.0169 815.329 48.9926L789.109 68.7776Z"
      fill="#FEC3BE" />
    <path
      d="M836 407.864C836 407.864 848 431.33 846.12 446.974C844.24 462.618 861.76 448.814 859.92 439.612C858.43 432.17 865.07 400.602 867.66 388.859C867.941 387.59 867.74 386.262 867.097 385.133C866.454 384.003 865.414 383.153 864.18 382.747C858.65 380.927 849.39 378.696 844.74 382.107C837.87 387.158 836 407.864 836 407.864Z"
      fill="#575A88" />
    <path
      d="M790.491 433.63C790.491 433.63 774.851 453.875 770.711 454.335C766.571 454.796 763.811 461.237 770.711 462.618C784.488 465.016 798.657 463.633 811.711 458.617C813.017 458.107 814.114 457.173 814.827 455.965C815.54 454.757 815.826 453.345 815.641 451.955L813.001 432.25L790.491 433.63Z"
      fill="#575A88" />
    <path
      d="M764.731 218.766L749.731 220.766C751.79 238.291 751.73 256 749.551 273.51V336.526C749.551 336.526 749.261 342.077 760.781 350.149C772.862 358.55 784.504 367.564 795.661 377.156L837.402 413.325C837.402 413.325 853.962 393.08 851.662 381.117C851.662 381.117 824.062 372.375 820.382 358.111C818.272 349.949 807.572 343.107 798.811 338.806C793.305 336.131 788.878 331.653 786.268 326.114C783.658 320.575 783.02 314.31 784.462 308.359C784.973 306.291 785.764 304.302 786.811 302.447C794.171 289.564 804.752 260.576 804.752 260.576L784.511 221.987L764.731 218.766Z"
      fill="#3F3D56" />
    <path opacity="0.05"
      d="M764.731 218.766L749.731 220.766C751.79 238.291 751.73 256 749.551 273.51V336.526C749.551 336.526 749.261 342.077 760.781 350.149C772.862 358.55 784.504 367.564 795.661 377.156L837.402 413.325C837.402 413.325 853.962 393.08 851.662 381.117C851.662 381.117 824.062 372.375 820.382 358.111C818.272 349.949 807.572 343.107 798.811 338.806C793.305 336.131 788.878 331.653 786.268 326.114C783.658 320.575 783.02 314.31 784.462 308.359C784.973 306.291 785.764 304.302 786.811 302.447C794.171 289.564 804.752 260.576 804.752 260.576L784.511 221.987L764.731 218.766Z"
      fill="black" />
    <path
      d="M786.811 435.041C786.811 435.041 813.951 439.642 814.871 442.402C815.791 445.163 814.871 438.722 814.871 438.722C814.871 438.722 830.511 391.329 826.871 349.469C823.231 307.608 831.471 279.991 831.471 279.991C831.471 279.991 841.131 248.703 835.611 230.759C830.091 212.814 772.131 220.636 772.131 220.636C772.131 220.636 792.371 268.028 791.911 290.574C791.911 290.574 794.211 358.671 798.351 366.493C798.311 366.453 791.871 433.17 786.811 435.041Z"
      fill="#3F3D56" />
    <path
      d="M790.001 80.7405C790.001 80.7405 792.761 97.7448 820.361 90.403L802.001 230.269C802.001 230.269 748.641 232.109 749.101 225.667L760.101 141.016L790.001 80.7405Z"
      fill="white" />
    <path opacity="0.1"
      d="M790.719 79.8204C787.125 83.3596 782.443 85.5833 777.429 86.132C772.85 86.4831 768.398 87.8061 764.369 90.013C759.639 92.6637 754.369 96.5147 752.769 101.206C749.549 110.408 729.309 125.592 720.109 122.371L723.329 149.978C723.329 149.978 749.549 148.598 754.149 138.475L746.339 236.99H753.239C753.239 236.99 756.919 210.304 759.679 204.782C762.439 199.261 767.959 168.893 768.419 161.531C768.879 154.169 775.779 111.839 781.759 104.517L790.759 82.6612L790.719 79.8204Z"
      fill="black" />
    <path opacity="0.1"
      d="M790.719 81.2006C786.608 84.417 781.693 86.4413 776.509 87.0521C771.932 87.4107 767.483 88.7405 763.459 90.953C758.729 93.6037 753.459 97.4547 751.859 102.146C748.639 111.348 728.399 126.532 719.199 123.311L722.419 150.918C722.419 150.918 748.639 149.538 753.239 139.415L745.419 237.87H752.319C752.319 237.87 755.999 211.184 758.759 205.662C761.519 200.141 767.039 169.773 767.499 162.411C767.959 155.049 774.859 112.719 780.839 105.397L790.719 83.9513V81.2006Z"
      fill="black" />
    <path
      d="M790.719 80.2808C786.609 83.4972 781.693 85.5215 776.509 86.1322C771.93 86.4833 767.478 87.8063 763.449 90.0132C758.719 92.6639 753.449 96.5149 751.849 101.206C748.629 110.408 728.389 125.592 719.189 122.371L722.409 149.979C722.409 149.979 748.629 148.598 753.229 138.476L745.419 236.991H752.319C752.319 236.991 755.999 210.304 758.759 204.782C761.519 199.261 767.039 168.893 767.499 161.531C767.959 154.17 774.859 111.839 780.839 104.517L790.729 83.1215L790.719 80.2808Z"
      fill="#3E3C55" />
    <path opacity="0.1"
      d="M814.179 62.5659C813.579 58.2048 814.779 55.4841 815.329 50.3728L789.109 70.1579C789.109 70.1579 789.739 72.8285 790.219 76.7395C791.542 76.9532 792.88 77.0603 794.219 77.0596C803.319 77.0596 809.869 69.9478 814.179 62.5659Z"
      fill="black" />
    <path
      d="M794.17 75.6891C807.889 75.6891 819.01 64.565 819.01 50.8428C819.01 37.1205 807.889 25.9965 794.17 25.9965C780.451 25.9965 769.33 37.1205 769.33 50.8428C769.33 64.565 780.451 75.6891 794.17 75.6891Z"
      fill="#FEC3BE" />
    <path opacity="0.1"
      d="M767.06 26.4869C766.9 22.2968 767.58 18.1171 769.06 14.1938C768.649 14.811 768.475 15.5562 768.571 16.2917C768.666 17.0271 769.025 17.7031 769.58 18.1948C770.381 13.9188 772.575 10.0286 775.82 7.13196C774.05 7.42203 773.14 9.61259 773.58 11.353C774.178 13.053 775.241 14.5504 776.65 15.6741C776.5 13.0435 778.24 10.5828 780.44 9.14248C782.732 7.8255 785.236 6.91835 787.84 6.46179C786.947 6.77878 786.184 7.38245 785.671 8.1786C785.157 8.97475 784.921 9.9186 785 10.8629C785.008 11.1837 785.14 11.4888 785.37 11.7131C785.62 11.873 785.914 11.95 786.21 11.9332C788.801 12.0331 791.396 11.9763 793.98 11.7631C797.157 11.4055 800.353 11.2351 803.55 11.253C813.55 11.6731 823.6 18.5049 825.84 28.2573C826.304 30.6237 826.548 33.0278 826.57 35.4392L827.06 47.7523C827.344 51.3446 827.197 54.958 826.62 58.5151C825.927 61.7988 824.519 64.8892 822.494 67.5657C820.47 70.2422 817.88 72.4389 814.91 73.999C811.3 68.7677 810.98 62.0459 809.73 55.8144C809.533 54.3763 808.998 53.0053 808.17 51.8133C807.742 51.224 807.142 50.7822 806.452 50.5492C805.762 50.3163 805.017 50.3036 804.32 50.513C802.97 51.0532 802.39 53.1137 803.51 54.0339C802.51 55.2142 800.64 54.334 799.51 53.2837C796.354 50.2893 794.182 46.4072 793.28 42.1509C792.83 40.0103 792.38 37.3697 790.28 36.6395C789.557 36.4409 788.802 36.3899 788.06 36.4894C783.68 36.7895 776.83 38.6 772.59 37.2096C768.7 35.9393 767.06 30.1778 767.06 26.4869Z"
      fill="black" />
    <path
      d="M767.521 26.0266C767.361 21.8365 768.041 17.6568 769.521 13.7334C769.11 14.3507 768.936 15.0959 769.032 15.8313C769.127 16.5668 769.486 17.2428 770.041 17.7344C770.841 13.4585 773.036 9.56824 776.281 6.67163C774.511 6.96171 773.601 9.15227 774.041 10.8927C774.638 12.5927 775.702 14.0901 777.111 15.2138C776.961 12.5831 778.701 10.1225 780.901 8.68214C783.193 7.36516 785.697 6.45802 788.301 6.00146C787.408 6.31846 786.645 6.92212 786.132 7.71827C785.618 8.51442 785.382 9.45828 785.461 10.4026C785.469 10.7234 785.601 11.0285 785.831 11.2528C786.081 11.4127 786.375 11.4897 786.671 11.4728C789.262 11.5727 791.857 11.5159 794.441 11.3028C797.618 10.9451 800.814 10.7748 804.011 10.7927C814.011 11.2128 824.061 18.0445 826.301 27.797C826.765 30.1633 827.009 32.5675 827.031 34.9788L827.521 47.292C827.805 50.8842 827.658 54.4977 827.081 58.0547C826.388 61.3385 824.98 64.4288 822.955 67.1054C820.931 69.7819 818.341 71.9786 815.371 73.5387C811.761 68.3073 811.441 61.5856 810.191 55.354C809.994 53.916 809.459 52.545 808.631 51.353C808.203 50.7636 807.603 50.3219 806.913 50.0889C806.223 49.8559 805.478 49.8433 804.781 50.0527C803.431 50.5928 802.851 52.6533 803.971 53.5736C802.971 54.7539 801.101 53.8737 799.971 52.8234C796.815 49.829 794.643 45.9468 793.741 41.6905C793.291 39.55 792.841 36.9093 790.741 36.1791C790.018 35.9806 789.263 35.9295 788.521 36.0291C784.141 36.3292 777.291 38.1396 773.051 36.7493C769.161 35.469 767.521 29.7175 767.521 26.0266Z"
      fill="#784F69" />
    <path opacity="0.1"
      d="M718 122.381C718 122.381 714.32 139.385 721.22 149.988L725.13 149.668L723 122.661L718 122.381Z" fill="black" />
    <path d="M719 122.381C719 122.381 715.32 139.385 722.22 149.988L726.13 149.668L724 122.661L719 122.381Z"
      fill="#3E3C55" />
    <path opacity="0.1"
      d="M817.859 75.9491L847.529 101.486C847.529 101.486 865.009 119.43 857.649 148.418C857.649 148.418 854.429 190.748 850.749 192.589C850.749 192.589 837.869 218.355 836.949 242.742C836.949 242.742 819.699 208.003 811.879 229.168C804.059 250.333 785.879 253.324 785.879 253.324L795.999 128.132C795.999 128.132 821.539 83.7311 817.859 75.9491Z"
      fill="black" />
    <path
      d="M818.781 75.9491L848.451 101.486C848.451 101.486 865.931 119.43 858.571 148.418C858.571 148.418 855.351 190.748 851.671 192.589C851.671 192.589 838.791 218.355 837.871 242.742C837.871 242.742 819.701 206.162 811.871 227.328C804.041 248.493 786.801 253.334 786.801 253.334L796.921 128.192C796.921 128.192 822.461 83.7311 818.781 75.9491Z"
      fill="#3E3C55" />
    <path
      d="M832.35 183.807C832.35 183.807 839.71 178.745 851.67 192.549L822.23 245.922L812.34 230.989C812.34 230.989 833.27 189.788 832.35 183.807Z"
      fill="#FEC3BE" />
    <path opacity="0.1"
      d="M825.221 186.797C825.221 186.797 841.501 205.082 847.851 202.151L853.731 188.458L831.661 178.975L825.221 186.797Z"
      fill="black" />
    <path
      d="M825.221 185.877C825.221 185.877 841.501 204.162 847.851 201.231L853.731 187.538L831.661 178.055L825.221 185.877Z"
      fill="#3E3C55" />
    <path opacity="0.1"
      d="M813.341 227.498C813.341 227.498 821.091 243.382 825.221 244.302L819.22 251.204L810.48 234.64L813.341 227.498Z"
      fill="black" />
    <path d="M812.88 227.988C812.88 227.988 820.63 243.872 824.76 244.792L818.76 251.694L810 235.1L812.88 227.988Z"
      fill="#3F3D56" />
    <path opacity="0.1" d="M827.52 129.743C827.52 129.743 828.44 162.871 824.76 175.295Z" fill="black" />
    <path opacity="0.1" d="M753 136.185C753 136.185 758.52 134.344 758.52 129.743Z" fill="black" />
    <path
      d="M82.6891 141.726C82.6891 141.726 56.4691 195.98 73.6891 260.186C90.9092 324.393 85.4392 401.222 68.2691 420.227"
      stroke="#3F3D56" stroke-width="2" stroke-miterlimit="10" />
    <path
      d="M82.6909 148.968C86.6839 148.968 89.9209 145.73 89.9209 141.736C89.9209 137.742 86.6839 134.504 82.6909 134.504C78.6979 134.504 75.4609 137.742 75.4609 141.736C75.4609 145.73 78.6979 148.968 82.6909 148.968Z"
      fill="#FABCA9" />
    <path d="M71.7891 176.625C71.7891 176.625 98.9691 181.526 106.199 171.624" stroke="#3F3D56" stroke-width="2"
      stroke-miterlimit="10" />
    <path d="M69.2105 192.379C69.2105 192.379 52.8604 174.284 53.7604 163.431" stroke="#3F3D56" stroke-width="2"
      stroke-miterlimit="10" />
    <path d="M67.8203 225.527C67.8203 225.527 82.6903 229.448 96.2603 200.521" stroke="#3F3D56" stroke-width="2"
      stroke-miterlimit="10" />
    <path d="M71.7891 249.634C71.7891 249.634 34.7891 225.818 39.2991 210.454" stroke="#3F3D56" stroke-width="2"
      stroke-miterlimit="10" />
    <path d="M77.5684 276.891C77.5684 276.891 103.488 253.885 100.778 231.249" stroke="#3F3D56" stroke-width="2"
      stroke-miterlimit="10" />
    <path d="M80.3895 292.914C80.3895 292.914 47.3895 283.692 48.3895 269.228" stroke="#3F3D56" stroke-width="2"
      stroke-miterlimit="10" />
    <path d="M82.6895 312.009C82.6895 312.009 103.479 292.744 106.189 281.001" stroke="#3F3D56" stroke-width="2"
      stroke-miterlimit="10" />
    <path d="M84.1404 344.768C84.1404 344.768 62.8104 319.861 61.9004 307.208" stroke="#3F3D56" stroke-width="2"
      stroke-miterlimit="10" />
    <path d="M84.1406 365.383C84.1406 365.383 108.011 338.856 109.811 326.203" stroke="#3F3D56" stroke-width="2"
      stroke-miterlimit="10" />
    <path
      d="M53.7593 172.474C57.7523 172.474 60.9893 169.236 60.9893 165.242C60.9893 161.248 57.7523 158.01 53.7593 158.01C49.7663 158.01 46.5293 161.248 46.5293 165.242C46.5293 169.236 49.7663 172.474 53.7593 172.474Z"
      fill="#FABCA9" />
    <path
      d="M45.6304 276.46C49.6234 276.46 52.8604 273.223 52.8604 269.228C52.8604 265.234 49.6234 261.997 45.6304 261.997C41.6374 261.997 38.4004 265.234 38.4004 269.228C38.4004 273.223 41.6374 276.46 45.6304 276.46Z"
      fill="#FABCA9" />
    <path
      d="M39.3003 217.686C43.2933 217.686 46.5303 214.448 46.5303 210.454C46.5303 206.46 43.2933 203.222 39.3003 203.222C35.3073 203.222 32.0703 206.46 32.0703 210.454C32.0703 214.448 35.3073 217.686 39.3003 217.686Z"
      fill="#FABCA9" />
    <path
      d="M106.201 178.806C110.194 178.806 113.431 175.568 113.431 171.574C113.431 167.58 110.194 164.342 106.201 164.342C102.208 164.342 98.9707 167.58 98.9707 171.574C98.9707 175.568 102.208 178.806 106.201 178.806Z"
      fill="#FABCA9" />
    <path
      d="M106.201 290.024C110.194 290.024 113.431 286.786 113.431 282.792C113.431 278.798 110.194 275.56 106.201 275.56C102.208 275.56 98.9707 278.798 98.9707 282.792C98.9707 286.786 102.208 290.024 106.201 290.024Z"
      fill="#FABCA9" />
    <path
      d="M94.4507 207.743C98.4437 207.743 101.681 204.505 101.681 200.511C101.681 196.517 98.4437 193.279 94.4507 193.279C90.4577 193.279 87.2207 196.517 87.2207 200.511C87.2207 204.505 90.4577 207.743 94.4507 207.743Z"
      fill="#FABCA9" />
    <path
      d="M108.91 337.956C112.903 337.956 116.14 334.718 116.14 330.724C116.14 326.73 112.903 323.492 108.91 323.492C104.917 323.492 101.68 326.73 101.68 330.724C101.68 334.718 104.917 337.956 108.91 337.956Z"
      fill="#FABCA9" />
    <path
      d="M60.0894 318.961C64.0824 318.961 67.3194 315.723 67.3194 311.729C67.3194 307.735 64.0824 304.498 60.0894 304.498C56.0964 304.498 52.8594 307.735 52.8594 311.729C52.8594 315.723 56.0964 318.961 60.0894 318.961Z"
      fill="#FABCA9" />
    <path
      d="M101.679 238.481C105.672 238.481 108.909 235.243 108.909 231.249C108.909 227.255 105.672 224.017 101.679 224.017C97.6862 224.017 94.4492 227.255 94.4492 231.249C94.4492 235.243 97.6862 238.481 101.679 238.481Z"
      fill="#FABCA9" />
  </g>
  <defs>
    <linearGradient id="paint0_linear" x1="446.11" y1="421.407" x2="446.11" y2="55.5641" gradientUnits="userSpaceOnUse">
      <stop stop-color="#808080" stop-opacity="0.25" />
      <stop offset="0.54" stop-color="#808080" stop-opacity="0.12" />
      <stop offset="1" stop-color="#808080" stop-opacity="0.1" />
    </linearGradient>
    <linearGradient id="paint1_linear" x1="203978" y1="301806" x2="203978" y2="82074.6" gradientUnits="userSpaceOnUse">
      <stop stop-color="#808080" stop-opacity="0.25" />
      <stop offset="0.54" stop-color="#808080" stop-opacity="0.12" />
      <stop offset="1" stop-color="#808080" stop-opacity="0.1" />
    </linearGradient>
    <clipPath id="clip0">
      <rect width="954" height="550" fill="white" />
    </clipPath>
  </defs>
</svg>