<svg width="60" height="30" viewBox="0 0 60 30" fill="none" xmlns="http://www.w3.org/2000/svg">
  <circle cx="15" cy="15" r="15" fill="#55D6A6" />
  <path
    d="M20.3239 18.02C20.3239 19.0867 19.9506 19.9867 19.2039 20.72C18.4706 21.4533 17.4772 21.9133 16.2239 22.1V23.36C16.2239 23.6667 16.1306 23.9133 15.9439 24.1C15.7572 24.3 15.5106 24.4 15.2039 24.4C14.8972 24.4 14.6506 24.3 14.4639 24.1C14.2772 23.9133 14.1839 23.6667 14.1839 23.36V22.14C13.4239 22.0733 12.6839 21.9133 11.9639 21.66C11.2439 21.4067 10.6239 21.0733 10.1039 20.66C9.93057 20.54 9.81057 20.4067 9.74391 20.26C9.67724 20.1133 9.64391 19.9333 9.64391 19.72C9.64391 19.44 9.72391 19.1933 9.88391 18.98C10.0572 18.7667 10.2506 18.66 10.4639 18.66C10.5972 18.66 10.7172 18.6867 10.8239 18.74C10.9439 18.78 11.0972 18.8533 11.2839 18.96C11.8972 19.36 12.4972 19.6533 13.0839 19.84C13.6839 20.0267 14.3106 20.12 14.9639 20.12C15.8572 20.12 16.5439 19.9467 17.0239 19.6C17.5172 19.2533 17.7639 18.7533 17.7639 18.1C17.7639 17.7133 17.6306 17.4 17.3639 17.16C17.0972 16.92 16.7639 16.7333 16.3639 16.6C15.9639 16.4533 15.4039 16.2867 14.6839 16.1C13.6839 15.8467 12.8706 15.5933 12.2439 15.34C11.6172 15.0733 11.0772 14.6733 10.6239 14.14C10.1706 13.6067 9.94391 12.8867 9.94391 11.98C9.94391 10.9 10.3306 9.98 11.1039 9.22C11.8772 8.46 12.8906 7.98667 14.1439 7.8V6.54C14.1439 6.23333 14.2372 5.98667 14.4239 5.8C14.6106 5.6 14.8572 5.5 15.1639 5.5C15.4706 5.5 15.7172 5.6 15.9039 5.8C16.0906 5.98667 16.1839 6.23333 16.1839 6.54V7.78C17.5306 7.95333 18.6906 8.44 19.6639 9.24C19.9839 9.48 20.1439 9.79333 20.1439 10.18C20.1439 10.46 20.0572 10.7067 19.8839 10.92C19.7239 11.1333 19.5306 11.24 19.3039 11.24C19.1839 11.24 19.0639 11.22 18.9439 11.18C18.8372 11.14 18.6906 11.06 18.5039 10.94C17.9572 10.5533 17.4372 10.2667 16.9439 10.08C16.4639 9.88 15.8906 9.78 15.2239 9.78C14.3972 9.78 13.7372 9.96667 13.2439 10.34C12.7506 10.7 12.5039 11.2 12.5039 11.84C12.5039 12.28 12.6439 12.64 12.9239 12.92C13.2039 13.1867 13.5572 13.3933 13.9839 13.54C14.4106 13.6867 14.9906 13.8533 15.7239 14.04C16.6972 14.28 17.4906 14.5267 18.1039 14.78C18.7172 15.0333 19.2372 15.42 19.6639 15.94C20.1039 16.4467 20.3239 17.14 20.3239 18.02Z"
    fill="white" />
  <circle cx="30" cy="15" r="15" fill="#FABCA9" />
  <path
    d="M35.3239 18.02C35.3239 19.0867 34.9506 19.9867 34.2039 20.72C33.4706 21.4533 32.4772 21.9133 31.2239 22.1V23.36C31.2239 23.6667 31.1306 23.9133 30.9439 24.1C30.7572 24.3 30.5106 24.4 30.2039 24.4C29.8972 24.4 29.6506 24.3 29.4639 24.1C29.2772 23.9133 29.1839 23.6667 29.1839 23.36V22.14C28.4239 22.0733 27.6839 21.9133 26.9639 21.66C26.2439 21.4067 25.6239 21.0733 25.1039 20.66C24.9306 20.54 24.8106 20.4067 24.7439 20.26C24.6772 20.1133 24.6439 19.9333 24.6439 19.72C24.6439 19.44 24.7239 19.1933 24.8839 18.98C25.0572 18.7667 25.2506 18.66 25.4639 18.66C25.5972 18.66 25.7172 18.6867 25.8239 18.74C25.9439 18.78 26.0972 18.8533 26.2839 18.96C26.8972 19.36 27.4972 19.6533 28.0839 19.84C28.6839 20.0267 29.3106 20.12 29.9639 20.12C30.8572 20.12 31.5439 19.9467 32.0239 19.6C32.5172 19.2533 32.7639 18.7533 32.7639 18.1C32.7639 17.7133 32.6306 17.4 32.3639 17.16C32.0972 16.92 31.7639 16.7333 31.3639 16.6C30.9639 16.4533 30.4039 16.2867 29.6839 16.1C28.6839 15.8467 27.8706 15.5933 27.2439 15.34C26.6172 15.0733 26.0772 14.6733 25.6239 14.14C25.1706 13.6067 24.9439 12.8867 24.9439 11.98C24.9439 10.9 25.3306 9.98 26.1039 9.22C26.8772 8.46 27.8906 7.98667 29.1439 7.8V6.54C29.1439 6.23333 29.2372 5.98667 29.4239 5.8C29.6106 5.6 29.8572 5.5 30.1639 5.5C30.4706 5.5 30.7172 5.6 30.9039 5.8C31.0906 5.98667 31.1839 6.23333 31.1839 6.54V7.78C32.5306 7.95333 33.6906 8.44 34.6639 9.24C34.9839 9.48 35.1439 9.79333 35.1439 10.18C35.1439 10.46 35.0572 10.7067 34.8839 10.92C34.7239 11.1333 34.5306 11.24 34.3039 11.24C34.1839 11.24 34.0639 11.22 33.9439 11.18C33.8372 11.14 33.6906 11.06 33.5039 10.94C32.9572 10.5533 32.4372 10.2667 31.9439 10.08C31.4639 9.88 30.8906 9.78 30.2239 9.78C29.3972 9.78 28.7372 9.96667 28.2439 10.34C27.7506 10.7 27.5039 11.2 27.5039 11.84C27.5039 12.28 27.6439 12.64 27.9239 12.92C28.2039 13.1867 28.5572 13.3933 28.9839 13.54C29.4106 13.6867 29.9906 13.8533 30.7239 14.04C31.6972 14.28 32.4906 14.5267 33.1039 14.78C33.7172 15.0333 34.2372 15.42 34.6639 15.94C35.1039 16.4467 35.3239 17.14 35.3239 18.02Z"
    fill="white" />
  <circle cx="45" cy="15" r="15" fill="#55D6A6" />
  <path
    d="M50.3239 18.02C50.3239 19.0867 49.9506 19.9867 49.2039 20.72C48.4706 21.4533 47.4772 21.9133 46.2239 22.1V23.36C46.2239 23.6667 46.1306 23.9133 45.9439 24.1C45.7572 24.3 45.5106 24.4 45.2039 24.4C44.8972 24.4 44.6506 24.3 44.4639 24.1C44.2772 23.9133 44.1839 23.6667 44.1839 23.36V22.14C43.4239 22.0733 42.6839 21.9133 41.9639 21.66C41.2439 21.4067 40.6239 21.0733 40.1039 20.66C39.9306 20.54 39.8106 20.4067 39.7439 20.26C39.6772 20.1133 39.6439 19.9333 39.6439 19.72C39.6439 19.44 39.7239 19.1933 39.8839 18.98C40.0572 18.7667 40.2506 18.66 40.4639 18.66C40.5972 18.66 40.7172 18.6867 40.8239 18.74C40.9439 18.78 41.0972 18.8533 41.2839 18.96C41.8972 19.36 42.4972 19.6533 43.0839 19.84C43.6839 20.0267 44.3106 20.12 44.9639 20.12C45.8572 20.12 46.5439 19.9467 47.0239 19.6C47.5172 19.2533 47.7639 18.7533 47.7639 18.1C47.7639 17.7133 47.6306 17.4 47.3639 17.16C47.0972 16.92 46.7639 16.7333 46.3639 16.6C45.9639 16.4533 45.4039 16.2867 44.6839 16.1C43.6839 15.8467 42.8706 15.5933 42.2439 15.34C41.6172 15.0733 41.0772 14.6733 40.6239 14.14C40.1706 13.6067 39.9439 12.8867 39.9439 11.98C39.9439 10.9 40.3306 9.98 41.1039 9.22C41.8772 8.46 42.8906 7.98667 44.1439 7.8V6.54C44.1439 6.23333 44.2372 5.98667 44.4239 5.8C44.6106 5.6 44.8572 5.5 45.1639 5.5C45.4706 5.5 45.7172 5.6 45.9039 5.8C46.0906 5.98667 46.1839 6.23333 46.1839 6.54V7.78C47.5306 7.95333 48.6906 8.44 49.6639 9.24C49.9839 9.48 50.1439 9.79333 50.1439 10.18C50.1439 10.46 50.0572 10.7067 49.8839 10.92C49.7239 11.1333 49.5306 11.24 49.3039 11.24C49.1839 11.24 49.0639 11.22 48.9439 11.18C48.8372 11.14 48.6906 11.06 48.5039 10.94C47.9572 10.5533 47.4372 10.2667 46.9439 10.08C46.4639 9.88 45.8906 9.78 45.2239 9.78C44.3972 9.78 43.7372 9.96667 43.2439 10.34C42.7506 10.7 42.5039 11.2 42.5039 11.84C42.5039 12.28 42.6439 12.64 42.9239 12.92C43.2039 13.1867 43.5572 13.3933 43.9839 13.54C44.4106 13.6867 44.9906 13.8533 45.7239 14.04C46.6972 14.28 47.4906 14.5267 48.1039 14.78C48.7172 15.0333 49.2372 15.42 49.6639 15.94C50.1039 16.4467 50.3239 17.14 50.3239 18.02Z"
    fill="white" />
</svg>